<?xml version="1.0" encoding="UTF-8" standalone="no"?>
<svg
   version="1.1"
   width="283.4646pt"
   height="283.4646pt"
   id="svg42"
   viewBox="0 0 283.4646 283.4646"
   sodipodi:docname="Logo Sara Martins.cdr"
   xmlns:inkscape="http://www.inkscape.org/namespaces/inkscape"
   xmlns:sodipodi="http://sodipodi.sourceforge.net/DTD/sodipodi-0.dtd"
   xmlns="http://www.w3.org/2000/svg"
   xmlns:svg="http://www.w3.org/2000/svg">
  <defs
     id="defs46" />
  <sodipodi:namedview
     id="namedview44"
     pagecolor="#ffffff"
     bordercolor="#000000"
     borderopacity="0.25"
     inkscape:showpageshadow="2"
     inkscape:pageopacity="0.0"
     inkscape:pagecheckerboard="0"
     inkscape:deskcolor="#d1d1d1"
     inkscape:document-units="pt" />
  <path
     d="M -0.0094,0.1531 V 283.6176 H 283.4552 V 0.1531 Z"
     style="fill:#f7f5f3;fill-rule:evenodd"
     id="path2" />
  <path
     d="m 54.8668,177.4758 c -1.3905,0 -2.7038,-0.251 -3.9399,-0.7531 -1.2361,-0.5023 -2.234,-1.2683 -2.9936,-2.2983 -0.7597,-1.0303 -1.1395,-2.3178 -1.1395,-3.863 0,-1.3389 0.2638,-2.3821 0.7918,-3.1287 0.5278,-0.7468 1.178,-1.2748 1.9507,-1.5837 0.7725,-0.3091 1.5065,-0.4636 2.2018,-0.4636 -0.6953,0.7468 -1.2233,1.5709 -1.5837,2.4722 -0.3607,0.9013 -0.5408,1.8025 -0.5408,2.7038 0,0.9529 0.2123,1.8413 0.6374,2.6654 0.4248,0.824 1.0751,1.4871 1.9505,1.9894 0.8756,0.5021 1.9829,0.7532 3.3221,0.7532 1.1588,0 2.2918,-0.2126 3.3991,-0.6375 1.1075,-0.4248 2.0151,-1.0557 2.7234,-1.8926 0.7081,-0.8371 1.0623,-1.8735 1.0623,-3.1096 0,-1.1072 -0.2835,-2.0601 -0.85,-2.8585 -0.5664,-0.7981 -1.2939,-1.5065 -2.1823,-2.1245 -0.8885,-0.6181 -1.8348,-1.2102 -2.8392,-1.7769 -1.0044,-0.5665 -1.9507,-1.1652 -2.8392,-1.796 -0.8884,-0.6311 -1.6159,-1.3586 -2.1824,-2.1827 -0.5665,-0.824 -0.8499,-1.8154 -0.8499,-2.9742 0,-1.0817 0.2576,-2.2146 0.7727,-3.3994 0.5149,-1.1845 1.2552,-2.3046 2.2211,-3.3606 0.9657,-1.0557 2.1246,-1.912 3.4764,-2.5687 1.352,-0.6566 2.8648,-0.9849 4.5388,-0.9849 1.5193,0 2.5751,0.3668 3.1674,1.1008 0.5924,0.734 0.8885,1.6547 0.8885,2.762 0,0.9269 -0.161,1.9248 -0.483,2.9936 -0.3217,1.0688 -0.7144,2.0858 -1.178,3.0517 -0.4635,0.9657 -0.9012,1.7832 -1.3133,2.4528 -0.4636,-0.1031 -0.7918,-0.3026 -0.985,-0.5987 -0.1932,-0.2963 -0.2898,-0.6502 -0.2898,-1.0623 0,-0.5408 0.116,-1.1588 0.3477,-1.8541 0.2319,-0.6955 0.4957,-1.4164 0.7918,-2.1632 0.2961,-0.7469 0.5602,-1.4743 0.7919,-2.1824 0.2319,-0.7084 0.3476,-1.3456 0.3476,-1.9123 0,-0.5149 -0.1544,-0.9206 -0.4634,-1.2167 -0.3091,-0.2961 -0.8756,-0.4442 -1.6996,-0.4442 -1.2104,0 -2.3306,0.2832 -3.3606,0.8499 -1.0301,0.5665 -1.9314,1.294 -2.7041,2.1824 -0.7725,0.8885 -1.3712,1.822 -1.7961,2.8005 -0.425,0.9785 -0.6374,1.8669 -0.6374,2.6653 0,0.9529 0.2768,1.7704 0.8304,2.4528 0.5539,0.6825 1.2683,1.3005 2.1439,1.8542 0.8756,0.5536 1.8091,1.1073 2.8007,1.6609 0.9913,0.5539 1.9248,1.1654 2.8004,1.835 0.8756,0.6694 1.5902,1.4614 2.1439,2.3756 0.5536,0.9141 0.8304,2.0279 0.8304,3.3412 0,1.3392 -0.2961,2.5172 -0.8885,3.5345 -0.5921,1.0172 -1.384,1.8734 -2.3756,2.5687 -0.9913,0.6953 -2.0795,1.2233 -3.264,1.5837 -1.1845,0.3605 -2.369,0.5408 -3.5538,0.5408 z m 14.7173,-1.5452 c -0.7984,0 -1.4743,-0.2639 -2.028,-0.7918 -0.5536,-0.5278 -0.8305,-1.3327 -0.8305,-2.4141 0,-0.9272 0.206,-1.9251 0.618,-2.9936 0.412,-1.0688 0.9787,-2.1246 1.6997,-3.1677 0.7211,-1.0429 1.5387,-1.9957 2.4528,-2.8583 0.9143,-0.8628 1.88,-1.5515 2.8972,-2.0667 1.017,-0.5149 2.028,-0.7725 3.0321,-0.7725 1.0044,0 1.8413,0.2639 2.5109,0.7919 0.6696,0.528 1.0044,1.2296 1.0044,2.1052 0,0.6437 -0.1738,1.0816 -0.5216,1.3133 -0.3477,0.2319 -0.8047,0.3476 -1.3712,0.3476 0.0515,-0.206 0.0966,-0.4312 0.1351,-0.6759 0.0387,-0.2447 0.0581,-0.4699 0.0581,-0.6759 0,-0.5924 -0.1417,-1.101 -0.4249,-1.5258 -0.2835,-0.4249 -0.7727,-0.6375 -1.468,-0.6375 -0.7209,0 -1.4549,0.2511 -2.2017,0.7534 -0.7469,0.5021 -1.4678,1.1717 -2.1631,2.0086 -0.6955,0.8369 -1.3135,1.7447 -1.8541,2.7232 -0.5408,0.9785 -0.9659,1.9442 -1.2748,2.897 -0.3091,0.9529 -0.4636,1.8028 -0.4636,2.5494 0,1.0044 0.3476,1.5065 1.0429,1.5065 0.5924,0 1.2361,-0.2767 1.9316,-0.8304 0.6952,-0.5536 1.4099,-1.2619 2.1437,-2.1245 0.7339,-0.8628 1.4357,-1.7575 2.1051,-2.6847 0.6696,-0.9269 1.262,-1.7769 1.7769,-2.5494 0.1031,-0.1544 0.1675,-0.2317 0.1932,-0.2317 0.1545,0.0257 0.3542,0.0773 0.5987,0.1545 0.2447,0.0772 0.4573,0.1803 0.6374,0.3089 0.1803,0.1288 0.2704,0.2963 0.2704,0.5023 0,0.2317 -0.116,0.5471 -0.3476,0.9463 -0.2317,0.3992 -0.4893,0.8563 -0.7725,1.3712 -0.2833,0.5151 -0.5409,1.0366 -0.7725,1.5646 -0.2319,0.5277 -0.3477,1.0235 -0.3477,1.4871 0,0.3864 0.1029,0.7662 0.3089,1.1395 0.2061,0.3735 0.5409,0.5602 1.0044,0.5602 0.6953,0 1.6094,-0.5086 2.7426,-1.5259 1.133,-1.0172 2.279,-2.5431 3.4379,-4.5773 l 0.3861,0.3861 c -0.5408,1.3908 -1.2361,2.614 -2.0858,3.6698 -0.8497,1.0557 -1.7575,1.8798 -2.7232,2.4721 -0.9657,0.5924 -1.9122,0.8885 -2.8392,0.8885 -0.9528,0 -1.6546,-0.2833 -2.1052,-0.8497 -0.4507,-0.5667 -0.6761,-1.1848 -0.6761,-1.8544 0,-0.1544 0.0131,-0.3283 0.0387,-0.5214 0.0257,-0.193 0.0516,-0.3927 0.0773,-0.5987 -1.1073,1.4936 -2.118,2.6138 -3.0324,3.3606 -0.9141,0.7468 -1.8476,1.1201 -2.8004,1.1201 z m 21.6699,-0.811 c -0.8753,0 -1.5643,-0.2319 -2.0664,-0.6952 -0.5023,-0.4636 -0.7534,-1.0688 -0.7534,-1.8157 0,-0.7725 0.1804,-1.5837 0.5409,-2.4334 0.3604,-0.85 0.7146,-1.6934 1.0622,-2.5303 0.3477,-0.8369 0.5215,-1.59 0.5215,-2.2596 0,-0.824 -0.2382,-1.4358 -0.7147,-1.8348 -0.4764,-0.3991 -0.9591,-0.7661 -1.4484,-1.1009 -0.5923,1.5193 -1.2104,2.9614 -1.8541,4.3263 -0.6439,1.3648 -1.1717,2.3949 -1.5837,3.0902 l -0.3476,-0.6568 c 0.3604,-0.6694 0.8303,-1.6481 1.4099,-2.9355 0.5793,-1.2877 1.1523,-2.7554 1.7188,-4.4036 -0.2576,-0.2575 -0.3862,-0.5667 -0.3862,-0.9271 0,-0.7725 0.2189,-1.4034 0.6566,-1.8929 0.4377,-0.4892 0.7596,-0.7338 0.9657,-0.7338 0.2832,0 0.4442,0.1223 0.4829,0.367 0.0385,0.2446 0.0579,0.4312 0.0579,0.56 0,0.1288 -0.0707,0.3798 -0.2126,0.7534 -0.1416,0.3733 -0.2123,0.5986 -0.2123,0.6759 0,0.3604 0.1995,0.6889 0.5987,0.985 0.3992,0.2961 0.8562,0.6309 1.3714,1.0044 0.5149,0.3733 0.972,0.8241 1.3712,1.3518 0.3992,0.528 0.5986,1.2039 0.5986,2.028 0,0.7727 -0.1609,1.558 -0.4827,2.3564 -0.3219,0.7982 -0.6439,1.5578 -0.9657,2.279 -0.3219,0.7209 -0.4829,1.352 -0.4829,1.8926 0,0.4636 0.1159,0.7727 0.3476,0.9272 0.2319,0.1544 0.5023,0.2317 0.8112,0.2317 0.6181,0 1.2555,-0.193 1.912,-0.5793 0.6568,-0.3864 1.2942,-0.8757 1.9123,-1.4678 0.618,-0.5924 1.1716,-1.217 1.6609,-1.8735 0.4893,-0.6568 0.8497,-1.2683 1.0816,-1.835 l 0.5021,0.3864 c -0.4892,1.0816 -1.1588,2.1439 -2.0086,3.1868 -0.8499,1.0429 -1.7962,1.8991 -2.8391,2.5687 -1.0429,0.6696 -2.118,1.0044 -3.2256,1.0044 z m 8.6141,0.811 c -0.7984,0 -1.4743,-0.2639 -2.0279,-0.7918 -0.5537,-0.5278 -0.8306,-1.3327 -0.8306,-2.4141 0,-0.9272 0.206,-1.9251 0.618,-2.9936 0.4121,-1.0688 0.9788,-2.1246 1.6997,-3.1677 0.7212,-1.0429 1.5387,-1.9957 2.4528,-2.8583 0.9144,-0.8628 1.88,-1.5515 2.8973,-2.0667 1.017,-0.5149 2.0279,-0.7725 3.0321,-0.7725 1.0044,0 1.8413,0.2639 2.5109,0.7919 0.6696,0.528 1.0044,1.2296 1.0044,2.1052 0,0.6437 -0.1738,1.0816 -0.5217,1.3133 -0.3476,0.2319 -0.8047,0.3476 -1.3712,0.3476 0.0516,-0.206 0.0966,-0.4312 0.1351,-0.6759 0.0388,-0.2447 0.0581,-0.4699 0.0581,-0.6759 0,-0.5924 -0.1416,-1.101 -0.4248,-1.5258 -0.2835,-0.4249 -0.7728,-0.6375 -1.468,-0.6375 -0.721,0 -1.455,0.2511 -2.2018,0.7534 -0.7468,0.5021 -1.4678,1.1717 -2.163,2.0086 -0.6955,0.8369 -1.3136,1.7447 -1.8542,2.7232 -0.5408,0.9785 -0.9659,1.9442 -1.2748,2.897 -0.3091,0.9529 -0.4635,1.8028 -0.4635,2.5494 0,1.0044 0.3476,1.5065 1.0429,1.5065 0.5923,0 1.236,-0.2767 1.9315,-0.8304 0.6953,-0.5536 1.4099,-1.2619 2.1437,-2.1245 0.734,-0.8628 1.4358,-1.7575 2.1052,-2.6847 0.6696,-0.9269 1.2619,-1.7769 1.7769,-2.5494 0.1031,-0.1544 0.1675,-0.2317 0.1932,-0.2317 0.1544,0.0257 0.3541,0.0773 0.5986,0.1545 0.2448,0.0772 0.4573,0.1803 0.6374,0.3089 0.1804,0.1288 0.2704,0.2963 0.2704,0.5023 0,0.2317 -0.1159,0.5471 -0.3476,0.9463 -0.2317,0.3992 -0.4892,0.8563 -0.7725,1.3712 -0.2832,0.5151 -0.5408,1.0366 -0.7725,1.5646 -0.2319,0.5277 -0.3476,1.0235 -0.3476,1.4871 0,0.3864 0.1029,0.7662 0.3089,1.1395 0.206,0.3735 0.5408,0.5602 1.0044,0.5602 0.6953,0 1.6094,-0.5086 2.7426,-1.5259 1.1329,-1.0172 2.2789,-2.5431 3.4378,-4.5773 l 0.3861,0.3861 c -0.5408,1.3908 -1.236,2.614 -2.0858,3.6698 -0.8497,1.0557 -1.7575,1.8798 -2.7232,2.4721 -0.9657,0.5924 -1.9122,0.8885 -2.8391,0.8885 -0.9529,0 -1.6547,-0.2833 -2.1052,-0.8497 -0.4508,-0.5667 -0.6761,-1.1848 -0.6761,-1.8544 0,-0.1544 0.013,-0.3283 0.0387,-0.5214 0.0257,-0.193 0.0515,-0.3927 0.0772,-0.5987 -1.1073,1.4936 -2.118,2.6138 -3.0323,3.3606 -0.9141,0.7468 -1.8476,1.1201 -2.8005,1.1201 z m 24.3739,1.5452 c 0.1546,-0.3604 0.5795,-1.307 1.2748,-2.8391 0.6952,-1.5322 1.603,-3.5279 2.7232,-5.9873 1.1203,-2.4593 2.3821,-5.2534 3.7854,-8.3821 1.4036,-3.129 2.8908,-6.4446 4.4617,-9.9468 0.0772,-0.1801 0.1609,-0.4183 0.251,-0.7146 0.0901,-0.2961 0.1353,-0.5859 0.1353,-0.8691 0,-0.2833 -0.0837,-0.5215 -0.2513,-0.7146 -0.1672,-0.1932 -0.5214,-0.2898 -1.0622,-0.2898 -1.0814,0 -1.9764,0.367 -2.6845,1.101 -0.7083,0.734 -1.2361,1.6416 -1.5837,2.7232 -0.3477,1.0816 -0.5215,2.1504 -0.5215,3.2062 0,0.2575 0.006,0.4764 0.0192,0.6567 0.013,0.1801 0.0322,0.3605 0.058,0.5406 -0.4892,0 -0.8821,-0.1738 -1.1782,-0.5214 -0.296,-0.3477 -0.5149,-0.7725 -0.6567,-1.2746 -0.1417,-0.5023 -0.2124,-0.9594 -0.2124,-1.3714 0,-0.8498 0.2317,-1.661 0.6953,-2.4335 0.4636,-0.7727 1.0623,-1.468 1.7963,-2.086 0.7337,-0.618 1.545,-1.1008 2.4334,-1.4484 0.8885,-0.3476 1.7576,-0.5215 2.6075,-0.5215 0.8497,0 1.5644,0.2383 2.1437,0.7147 0.5795,0.4762 1.0172,1.3324 1.3135,2.5685 0.2961,1.2363 0.4442,3.026 0.4442,5.3694 0,1.5966 -0.0581,3.2963 -0.174,5.0988 -0.1157,1.8026 -0.238,3.5795 -0.3668,5.3307 -0.1288,1.751 -0.2191,3.3478 -0.2704,4.7899 0.412,-1.5709 0.9979,-3.2449 1.7575,-5.0218 0.7597,-1.7769 1.5966,-3.5473 2.5107,-5.3113 0.9144,-1.7639 1.8219,-3.4185 2.7234,-4.9635 0.9013,-1.5452 1.7125,-2.8842 2.4335,-4.0174 0.7211,-1.1329 1.2489,-1.957 1.5837,-2.4721 0.3605,-0.515 0.6696,-0.9079 0.9272,-1.1783 0.2573,-0.2704 0.5921,-0.4055 1.0042,-0.4055 0.3606,0 0.7727,0.0901 1.236,0.2704 -0.1801,0.4636 -0.4311,1.1524 -0.7531,2.0667 -0.322,0.9141 -0.6502,2.028 -0.985,3.3413 -0.4121,1.5708 -0.8241,3.3541 -1.2361,5.3498 -0.412,1.9957 -0.7919,4.0237 -1.1395,6.0838 -0.3476,2.0602 -0.6246,3.998 -0.8306,5.8137 -0.206,1.8154 -0.3089,3.3412 -0.3089,4.5773 0,0.5665 0.0257,1.0042 0.0772,1.3133 0.0516,0.3089 0.1223,0.5859 0.2123,0.8306 0.0903,0.2445 0.1869,0.5858 0.2898,1.0235 -0.8756,0 -1.545,-0.1416 -2.0086,-0.4248 -0.4635,-0.2833 -0.7725,-0.7405 -0.9271,-1.3714 -0.1545,-0.6309 -0.2317,-1.4743 -0.2317,-2.53 0,-3.0646 0.3926,-6.3543 1.1782,-9.8694 0.7853,-3.5152 1.6803,-7.1654 2.6845,-10.9511 -0.7468,0.9528 -1.5256,2.1567 -2.3369,3.6119 -0.8112,1.4549 -1.6224,3.0258 -2.4336,4.7124 -0.8112,1.6868 -1.5837,3.3735 -2.3175,5.0603 -0.734,1.6868 -1.3843,3.2512 -1.9507,4.6933 -0.5667,1.4421 -1.0044,2.6394 -1.3136,3.5923 -0.1544,0.0515 -0.2573,0.0903 -0.3089,0.1159 -0.0515,0.0257 -0.1416,0.0388 -0.2704,0.0388 -0.6953,0 -1.1523,-0.4121 -1.3712,-1.2361 -0.219,-0.8241 -0.3285,-1.9829 -0.3285,-3.4766 0,-1.056 0.0322,-2.3112 0.0966,-3.7663 0.0644,-1.455 0.1353,-2.9549 0.2126,-4.5001 0.0772,-1.545 0.1479,-3.0322 0.2123,-4.4614 0.0644,-1.4293 0.0966,-2.6589 0.0966,-3.6889 0,-0.5152 -0.006,-0.94 -0.0194,-1.2748 -0.0128,-0.3348 -0.0322,-0.6309 -0.0578,-0.8885 -2.0602,4.7899 -3.7855,8.878 -5.1761,12.2643 -1.3907,3.3865 -2.5559,6.1354 -3.4959,8.2471 -0.9398,2.1117 -1.7704,3.6566 -2.4915,4.6354 -0.721,0.9785 -1.4291,1.4677 -2.1245,1.4677 z m 31.0567,-1.5452 c -0.7984,0 -1.4743,-0.2639 -2.0279,-0.7918 -0.5537,-0.5278 -0.8306,-1.3327 -0.8306,-2.4141 0,-0.9272 0.206,-1.9251 0.618,-2.9936 0.4121,-1.0688 0.9788,-2.1246 1.6997,-3.1677 0.7212,-1.0429 1.5387,-1.9957 2.4528,-2.8583 0.9143,-0.8628 1.88,-1.5515 2.8973,-2.0667 1.017,-0.5149 2.0279,-0.7725 3.0321,-0.7725 1.0044,0 1.8413,0.2639 2.5109,0.7919 0.6696,0.528 1.0044,1.2296 1.0044,2.1052 0,0.6437 -0.1738,1.0816 -0.5217,1.3133 -0.3476,0.2319 -0.8047,0.3476 -1.3712,0.3476 0.0516,-0.206 0.0966,-0.4312 0.1351,-0.6759 0.0387,-0.2447 0.0581,-0.4699 0.0581,-0.6759 0,-0.5924 -0.1416,-1.101 -0.4249,-1.5258 -0.2834,-0.4249 -0.7727,-0.6375 -1.4679,-0.6375 -0.721,0 -1.455,0.2511 -2.2018,0.7534 -0.7468,0.5021 -1.4678,1.1717 -2.163,2.0086 -0.6955,0.8369 -1.3136,1.7447 -1.8542,2.7232 -0.5408,0.9785 -0.9659,1.9442 -1.2748,2.897 -0.3091,0.9529 -0.4636,1.8028 -0.4636,2.5494 0,1.0044 0.3477,1.5065 1.0429,1.5065 0.5924,0 1.2361,-0.2767 1.9316,-0.8304 0.6953,-0.5536 1.4099,-1.2619 2.1437,-2.1245 0.734,-0.8628 1.4358,-1.7575 2.1052,-2.6847 0.6696,-0.9269 1.2619,-1.7769 1.7769,-2.5494 0.1031,-0.1544 0.1675,-0.2317 0.1931,-0.2317 0.1545,0.0257 0.3542,0.0773 0.5987,0.1545 0.2448,0.0772 0.4573,0.1803 0.6374,0.3089 0.1804,0.1288 0.2704,0.2963 0.2704,0.5023 0,0.2317 -0.1159,0.5471 -0.3476,0.9463 -0.2317,0.3992 -0.4893,0.8563 -0.7725,1.3712 -0.2832,0.5151 -0.5408,1.0366 -0.7725,1.5646 -0.2319,0.5277 -0.3476,1.0235 -0.3476,1.4871 0,0.3864 0.1029,0.7662 0.3089,1.1395 0.206,0.3735 0.5408,0.5602 1.0044,0.5602 0.6952,0 1.6094,-0.5086 2.7425,-1.5259 1.133,-1.0172 2.279,-2.5431 3.4379,-4.5773 l 0.3861,0.3861 c -0.5408,1.3908 -1.2361,2.614 -2.0858,3.6698 -0.8497,1.0557 -1.7575,1.8798 -2.7232,2.4721 -0.9657,0.5924 -1.9122,0.8885 -2.8392,0.8885 -0.9528,0 -1.6546,-0.2833 -2.1051,-0.8497 -0.4508,-0.5667 -0.6762,-1.1848 -0.6762,-1.8544 0,-0.1544 0.0131,-0.3283 0.0388,-0.5214 0.0256,-0.193 0.0515,-0.3927 0.0772,-0.5987 -1.1073,1.4936 -2.118,2.6138 -3.0323,3.3606 -0.9142,0.7468 -1.8476,1.1201 -2.8005,1.1201 z m 21.67,-0.811 c -0.8754,0 -1.5644,-0.2319 -2.0665,-0.6952 -0.5023,-0.4636 -0.7533,-1.0688 -0.7533,-1.8157 0,-0.7725 0.1803,-1.5837 0.5408,-2.4334 0.3605,-0.85 0.7146,-1.6934 1.0623,-2.5303 0.3476,-0.8369 0.5214,-1.59 0.5214,-2.2596 0,-0.824 -0.2382,-1.4358 -0.7146,-1.8348 -0.4764,-0.3991 -0.9592,-0.7661 -1.4484,-1.1009 -0.5924,1.5193 -1.2104,2.9614 -1.8541,4.3263 -0.644,1.3648 -1.1717,2.3949 -1.5838,3.0902 l -0.3476,-0.6568 c 0.3605,-0.6694 0.8304,-1.6481 1.4099,-2.9355 0.5793,-1.2877 1.1523,-2.7554 1.7188,-4.4036 -0.2576,-0.2575 -0.3861,-0.5667 -0.3861,-0.9271 0,-0.7725 0.2188,-1.4034 0.6565,-1.8929 0.4377,-0.4892 0.7597,-0.7338 0.9657,-0.7338 0.2832,0 0.4442,0.1223 0.4829,0.367 0.0385,0.2446 0.0579,0.4312 0.0579,0.56 0,0.1288 -0.0707,0.3798 -0.2125,0.7534 -0.1417,0.3733 -0.2124,0.5986 -0.2124,0.6759 0,0.3604 0.1995,0.6889 0.5987,0.985 0.3992,0.2961 0.8563,0.6309 1.3714,1.0044 0.5149,0.3733 0.972,0.8241 1.3712,1.3518 0.3992,0.528 0.5987,1.2039 0.5987,2.028 0,0.7727 -0.161,1.558 -0.4827,2.3564 -0.322,0.7982 -0.644,1.5578 -0.9657,2.279 -0.322,0.7209 -0.483,1.352 -0.483,1.8926 0,0.4636 0.116,0.7727 0.3477,0.9272 0.2319,0.1544 0.5023,0.2317 0.8112,0.2317 0.618,0 1.2554,-0.193 1.912,-0.5793 0.6567,-0.3864 1.2941,-0.8757 1.9122,-1.4678 0.618,-0.5924 1.1717,-1.217 1.6609,-1.8735 0.4893,-0.6568 0.8498,-1.2683 1.0817,-1.835 l 0.5021,0.3864 c -0.4893,1.0816 -1.1589,2.1439 -2.0086,3.1868 -0.85,1.0429 -1.7963,1.8991 -2.8392,2.5687 -1.0429,0.6696 -2.118,1.0044 -3.2255,1.0044 z m 10.0433,0.7725 c -1.1073,0 -1.9572,-0.3219 -2.5494,-0.9657 -0.5923,-0.6439 -0.8884,-1.5965 -0.8884,-2.8585 0,-1.1329 0.2123,-2.53 0.6374,-4.191 0.4248,-1.6611 0.9591,-3.3671 1.6028,-5.1183 -0.2573,-0.0514 -0.502,-0.0964 -0.7337,-0.1351 -0.2319,-0.0387 -0.4508,-0.0966 -0.6568,-0.1738 v -0.6953 c 0.206,0.0257 0.4508,0.0515 0.734,0.0772 0.2832,0.0257 0.6052,0.0516 0.9657,0.0772 0.5408,-1.3905 1.1201,-2.736 1.7382,-4.0365 0.618,-1.3005 1.2297,-2.4593 1.8347,-3.4765 0.6052,-1.0173 1.1848,-1.8285 1.7384,-2.4335 0.5537,-0.6052 1.0236,-0.9078 1.4099,-0.9078 0.206,0 0.3927,0.0707 0.5602,0.2123 0.1673,0.1419 0.251,0.3542 0.251,0.6374 0,0.4379 -0.2704,1.1526 -0.8112,2.1439 -0.5408,0.9914 -1.2104,2.1696 -2.0086,3.5345 -0.7984,1.3648 -1.5709,2.8456 -2.3177,4.4422 0.2317,0 0.4699,0 0.7146,0 0.2446,0 0.4828,0 0.7147,0 0.8497,0 1.7447,-0.0128 2.6845,-0.0387 0.94,-0.0257 1.8863,-0.0901 2.8391,-0.1932 v 0.6955 c -1.4162,0.1544 -2.6845,0.2702 -3.8048,0.3476 -1.1201,0.0772 -2.118,0.1158 -2.9936,0.1158 -0.1029,0 -0.1995,0 -0.2898,0 -0.0901,0 -0.1866,0 -0.2895,0 -0.5924,1.3648 -1.0945,2.7684 -1.5065,4.2105 -0.4121,1.4421 -0.6181,2.8455 -0.6181,4.2104 0,1.1073 0.1673,1.8991 0.5021,2.3755 0.3348,0.4765 0.8885,0.7147 1.661,0.7147 1.3392,0 2.6525,-0.5924 3.9401,-1.7769 1.2874,-1.1846 2.4206,-2.7942 3.3991,-4.8284 l 0.5021,0.3861 c -0.618,1.4421 -1.3968,2.7426 -2.3368,3.9015 -0.94,1.1588 -1.9764,2.0731 -3.1096,2.7425 -1.133,0.6696 -2.3049,1.0044 -3.5151,1.0044 z m 10.5067,-0.7725 c -1.0044,0 -1.7512,-0.3154 -2.2404,-0.9465 -0.4893,-0.6309 -0.734,-1.3971 -0.734,-2.2984 0,-0.5921 0.1094,-1.3389 0.3282,-2.2402 0.2191,-0.9013 0.5087,-1.8478 0.8693,-2.8392 0.3605,-0.9915 0.7788,-1.925 1.2553,-2.8006 0.4764,-0.8754 0.985,-1.5901 1.5258,-2.1437 0.5408,-0.5537 1.0688,-0.8306 1.5837,-0.8306 0.2319,0 0.4314,0.0709 0.5987,0.2125 0.1675,0.1417 0.2513,0.354 0.2513,0.6374 0,0.309 -0.1997,0.811 -0.5989,1.5063 -0.399,0.6955 -0.8691,1.4937 -1.4099,2.395 -0.5408,0.9015 -1.0107,1.8478 -1.4099,2.8391 -0.3992,0.9916 -0.5987,1.9379 -0.5987,2.8392 0,0.9272 0.1545,1.5452 0.4636,1.8541 0.3089,0.3091 0.7853,0.4636 1.4292,0.4636 0.8754,0 1.8091,-0.4377 2.8005,-1.3133 0.9913,-0.8756 2.0408,-2.4078 3.1481,-4.5967 l 0.3476,0.3861 c -0.7466,2.2148 -1.8219,3.9143 -3.2253,5.099 -1.4036,1.1846 -2.8648,1.7769 -4.3842,1.7769 z m 4.6352,-17.6915 c -0.412,0 -0.779,-0.1031 -1.1007,-0.3091 -0.322,-0.206 -0.483,-0.5278 -0.483,-0.9657 0,-0.5408 0.3155,-1.0107 0.9463,-1.4099 0.6311,-0.3992 1.2555,-0.5987 1.8735,-0.5987 0.3864,0 0.6953,0.0901 0.9272,0.2704 0.2317,0.1801 0.3476,0.4893 0.3476,0.927 0,0.4894 -0.2641,0.9593 -0.7918,1.4099 -0.528,0.4507 -1.101,0.6761 -1.7191,0.6761 z m 14.3697,17.4596 c -0.9013,0 -1.5774,-0.2317 -2.028,-0.6952 -0.4507,-0.4636 -0.6761,-1.0558 -0.6761,-1.7769 0,-0.5409 0.0966,-1.1073 0.2898,-1.6997 0.1932,-0.5922 0.3798,-1.2039 0.5602,-1.8348 0.1801,-0.6309 0.2704,-1.2424 0.2704,-1.8347 0,-0.7212 -0.1482,-1.2168 -0.4443,-1.4872 -0.2963,-0.2704 -0.663,-0.4057 -1.101,-0.4057 -0.7981,0 -1.6093,0.3285 -2.4334,0.9851 -0.8241,0.6567 -1.6224,1.4936 -2.3949,2.5108 -0.7725,1.0173 -1.4937,2.0665 -2.1633,3.1481 -0.6694,1.0816 -1.2617,2.0473 -1.7769,2.897 -0.412,0 -0.8047,-0.0707 -1.178,-0.2123 -0.3735,-0.1416 -0.6631,-0.3541 -0.8691,-0.6374 0,-0.1288 0.1351,-0.528 0.4055,-1.1973 0.2704,-0.6696 0.5859,-1.4937 0.9463,-2.4722 0.3607,-0.9787 0.6825,-1.9829 0.9657,-3.013 0.2835,-1.0301 0.4251,-1.9701 0.4251,-2.8198 0.1545,-0.1803 0.399,-0.3607 0.7338,-0.5408 0.3348,-0.1803 0.6824,-0.2704 1.0429,-0.2704 0.6955,0 1.0431,0.3348 1.0431,1.0042 0,0.412 -0.116,1.101 -0.3476,2.0666 -0.2319,0.9657 -0.528,1.9764 -0.8885,3.0324 0.6953,-1.056 1.4743,-2.1052 2.3369,-3.1483 0.8627,-1.0429 1.7834,-1.912 2.7619,-2.6073 0.9785,-0.6952 1.9572,-1.0429 2.9358,-1.0429 1.0041,0 1.7318,0.3605 2.1824,1.0814 0.4507,0.7212 0.6759,1.5196 0.6759,2.395 0,0.7984 -0.1286,1.5387 -0.3862,2.2211 -0.2575,0.6824 -0.5214,1.3392 -0.7918,1.9701 -0.2704,0.6308 -0.4058,1.2682 -0.4058,1.912 0,0.5408 0.1095,0.9206 0.3285,1.1395 0.2189,0.219 0.4956,0.3284 0.8304,0.3284 0.6439,0 1.2876,-0.3026 1.9314,-0.9078 0.6439,-0.6052 1.2682,-1.3714 1.8734,-2.2983 0.6053,-0.9272 1.1395,-1.867 1.6031,-2.8198 l 0.4249,0.5021 c -0.5408,1.2619 -1.1458,2.3821 -1.8154,3.3606 -0.6696,0.9785 -1.4036,1.7512 -2.2018,2.3177 -0.7984,0.5665 -1.6868,0.8497 -2.6653,0.8497 z m 9.5795,1.1976 c -1.2104,0 -2.1695,-0.2641 -2.8777,-0.7919 -0.7083,-0.5279 -1.2104,-1.1782 -1.5064,-1.9507 -0.2963,-0.7727 -0.4443,-1.5452 -0.4443,-2.3177 0,-0.7725 0.1029,-1.3649 0.3089,-1.7769 0.2061,-0.412 0.4571,-0.7209 0.7534,-0.9269 0.2961,-0.206 0.5793,-0.3607 0.8497,-0.4636 0.2704,-0.1031 0.4571,-0.206 0.5602,-0.3091 0.7725,-0.8498 1.4806,-1.7382 2.1245,-2.6654 0.6437,-0.9269 1.2102,-1.9055 1.6997,-2.9355 v -0.4636 c 0,-0.9529 0.1608,-1.6288 0.4827,-2.028 0.322,-0.3992 0.6631,-0.5986 1.0236,-0.5986 0.206,0 0.3607,0.0513 0.4636,0.1544 0.1031,0.1029 0.1544,0.2189 0.1544,0.3477 0,0.1287 -0.0385,0.3348 -0.1157,0.618 -0.0772,0.2832 -0.116,0.6437 -0.116,1.0816 0,0.8497 0.1675,1.7704 0.5021,2.7617 0.3348,0.9916 0.6696,2.0345 1.0044,3.129 0.3348,1.0944 0.5021,2.2339 0.5021,3.4185 0,0.3348 -0.0191,0.6632 -0.0579,0.985 -0.0387,0.322 -0.0965,0.6246 -0.1738,0.9078 0.9013,-0.1545 1.7513,-0.5602 2.5494,-1.2167 0.7984,-0.6568 1.5709,-1.7062 2.3177,-3.1483 l 0.3477,0.3863 c -0.4893,1.4165 -1.2233,2.4916 -2.2018,3.2253 -0.9785,0.734 -2.0473,1.1911 -3.2061,1.3714 -0.4121,1.1073 -1.0623,1.9186 -1.9508,2.4335 -0.8884,0.5151 -1.8863,0.7727 -2.9936,0.7727 z m 0.0772,-1.352 c 0.3092,0 0.7212,-0.1029 1.2361,-0.3089 0.5152,-0.2061 0.9144,-0.734 1.1976,-1.584 -1.0816,-0.206 -2.041,-0.6309 -2.8779,-1.2746 -0.8369,-0.6439 -1.4614,-1.2876 -1.8735,-1.9313 -0.5664,0.0256 -0.8497,0.4764 -0.8497,1.3518 0,0.9272 0.2769,1.7834 0.8306,2.5688 0.5536,0.7855 1.3327,1.1782 2.3368,1.1782 z m 2.6269,-2.5109 c 0.0513,-0.2574 0.09,-0.5278 0.1157,-0.811 0.0259,-0.2835 0.0387,-0.6181 0.0387,-1.0044 0,-1.2104 -0.1481,-2.4143 -0.4442,-3.6117 -0.2963,-1.1976 -0.5473,-2.3242 -0.7533,-3.38 -0.5922,0.9785 -1.2168,1.912 -1.8733,2.8005 -0.6568,0.8884 -1.2813,1.6289 -1.8735,2.2211 0.3861,0.8241 0.985,1.5968 1.796,2.3177 0.8113,0.7212 1.8091,1.2104 2.9939,1.4678 z"
     style="fill:#9a9a76;fill-rule:evenodd"
     id="path4" />
  <path
     d="m 71.2816,187.7389 c 0.8301,0 1.4806,0.1982 1.9513,0.5946 0.4708,0.3965 0.7062,0.9417 0.7062,1.6354 0,0.6938 -0.2354,1.2374 -0.7062,1.631 -0.4707,0.3933 -1.1212,0.59 -1.9513,0.59 h -1.7471 v 2.0536 H 68.847 v -6.5046 z m -0.0187,3.847 c 0.6443,0 1.1368,-0.1409 1.4775,-0.4229 0.3407,-0.2819 0.511,-0.6798 0.511,-1.1941 0,-0.5264 -0.1703,-0.9308 -0.511,-1.2125 -0.3407,-0.282 -0.8332,-0.4229 -1.4775,-0.4229 h -1.7284 v 3.2524 z m 6.9842,2.7133 c -0.4834,0 -0.9463,-0.0775 -1.3892,-0.2324 -0.4429,-0.1549 -0.7854,-0.3591 -1.0268,-0.6132 l 0.2693,-0.5298 c 0.2354,0.2356 0.5484,0.426 0.9387,0.5715 0.3903,0.1458 0.7929,0.2184 1.208,0.2184 0.5822,0 1.019,-0.1068 1.3101,-0.3204 0.2912,-0.2138 0.4368,-0.491 0.4368,-0.8317 0,-0.2601 -0.079,-0.4677 -0.2369,-0.6226 -0.158,-0.1549 -0.3516,-0.2741 -0.5809,-0.3578 -0.2293,-0.0836 -0.5482,-0.1749 -0.9572,-0.2741 -0.4892,-0.1238 -0.8795,-0.2433 -1.1708,-0.3577 -0.291,-0.1146 -0.5404,-0.2898 -0.7479,-0.5251 -0.2075,-0.2354 -0.3113,-0.5546 -0.3113,-0.9572 0,-0.3283 0.0866,-0.6272 0.2602,-0.8967 0.1734,-0.2694 0.4399,-0.4847 0.799,-0.6457 0.3594,-0.1612 0.8054,-0.2417 1.3381,-0.2417 0.3718,0 0.7358,0.0511 1.0919,0.1534 0.3563,0.1022 0.6644,0.2432 0.9245,0.4229 l -0.2321,0.5482 c -0.2726,-0.1797 -0.5638,-0.3144 -0.8736,-0.4042 -0.3098,-0.0899 -0.6133,-0.1349 -0.9107,-0.1349 -0.5699,0 -0.9989,0.1101 -1.287,0.33 -0.288,0.22 -0.432,0.5032 -0.432,0.8502 0,0.2602 0.079,0.4692 0.2369,0.6272 0.1579,0.1579 0.3563,0.2789 0.5948,0.3624 0.2384,0.0837 0.5591,0.1751 0.9617,0.2741 0.4771,0.1177 0.8626,0.2339 1.1569,0.3485 0.2944,0.1146 0.5437,0.288 0.7482,0.5204 0.2042,0.2323 0.3065,0.5467 0.3065,0.9432 0,0.3283 -0.0883,0.6272 -0.2648,0.8967 -0.1766,0.2694 -0.4477,0.4832 -0.8131,0.6411 -0.3655,0.158 -0.8147,0.237 -1.3473,0.237 z m 4.8562,-6.5603 h 0.6875 v 6.5046 h -0.6875 z m 6.5659,6.5603 c -0.6443,0 -1.2249,-0.1425 -1.7423,-0.4275 -0.5173,-0.285 -0.923,-0.6798 -1.2173,-1.1848 -0.2942,-0.5049 -0.4414,-1.0701 -0.4414,-1.6957 0,-0.6257 0.1472,-1.1911 0.4414,-1.696 0.2943,-0.5049 0.7015,-0.8997 1.2219,-1.1847 0.5204,-0.285 1.1027,-0.4275 1.7471,-0.4275 0.4832,0 0.9291,0.0805 1.3381,0.2417 0.4088,0.161 0.7558,0.3964 1.0407,0.7061 l -0.4368,0.4369 c -0.508,-0.5143 -1.1491,-0.7714 -1.9235,-0.7714 -0.5143,0 -0.982,0.1176 -1.4032,0.3532 -0.4211,0.2354 -0.7511,0.5574 -0.9896,0.9664 -0.2384,0.4087 -0.3578,0.8673 -0.3578,1.3753 0,0.5079 0.1194,0.9663 0.3578,1.3753 0.2385,0.4088 0.5685,0.7309 0.9896,0.9663 0.4212,0.2354 0.8889,0.3531 1.4032,0.3531 0.7805,0 1.4216,-0.2602 1.9235,-0.7805 l 0.4368,0.4368 c -0.2849,0.3095 -0.6334,0.5467 -1.0455,0.7107 -0.412,0.1642 -0.8595,0.2463 -1.3427,0.2463 z m 7.4951,0 c -0.6442,0 -1.2281,-0.1441 -1.7515,-0.4321 -0.5236,-0.288 -0.9324,-0.6831 -1.2267,-1.1847 -0.2941,-0.5019 -0.4414,-1.0656 -0.4414,-1.6912 0,-0.6257 0.1473,-1.1895 0.4414,-1.6912 0.2943,-0.5019 0.7031,-0.8967 1.2267,-1.185 0.5234,-0.288 1.1073,-0.432 1.7515,-0.432 0.6443,0 1.2252,0.1425 1.7423,0.4275 0.5173,0.285 0.9248,0.6798 1.2219,1.1847 0.2974,0.5049 0.4462,1.0703 0.4462,1.696 0,0.6256 -0.1488,1.1908 -0.4462,1.6957 -0.2971,0.505 -0.7046,0.8998 -1.2219,1.1848 -0.5171,0.285 -1.098,0.4275 -1.7423,0.4275 z m 0,-0.6133 c 0.5143,0 0.9789,-0.1162 1.394,-0.3485 0.4149,-0.2323 0.7403,-0.5543 0.9757,-0.9663 0.2354,-0.4121 0.3531,-0.872 0.3531,-1.3799 0,-0.508 -0.1177,-0.9681 -0.3531,-1.3799 -0.2354,-0.412 -0.5608,-0.7342 -0.9757,-0.9665 -0.4151,-0.2324 -0.8797,-0.3485 -1.394,-0.3485 -0.5141,0 -0.9803,0.1161 -1.3984,0.3485 -0.4181,0.2323 -0.7466,0.5545 -0.985,0.9665 -0.2385,0.4118 -0.3579,0.8719 -0.3579,1.3799 0,0.5079 0.1194,0.9678 0.3579,1.3799 0.2384,0.412 0.5669,0.734 0.985,0.9663 0.4181,0.2323 0.8843,0.3485 1.3984,0.3485 z m 0.6691,-7.629 h 0.8828 l -1.5054,1.1523 h -0.6504 z m 5.2187,1.682 h 0.6874 v 5.9098 h 3.6428 v 0.5948 h -4.3302 z m 9.1212,6.5603 c -0.6442,0 -1.2281,-0.1441 -1.7515,-0.4321 -0.5236,-0.288 -0.9324,-0.6831 -1.2267,-1.1847 -0.2941,-0.5019 -0.4414,-1.0656 -0.4414,-1.6912 0,-0.6257 0.1473,-1.1895 0.4414,-1.6912 0.2943,-0.5019 0.7031,-0.8967 1.2267,-1.185 0.5234,-0.288 1.1073,-0.432 1.7515,-0.432 0.6443,0 1.2252,0.1425 1.7423,0.4275 0.5173,0.285 0.9248,0.6798 1.2219,1.1847 0.2974,0.5049 0.4462,1.0703 0.4462,1.696 0,0.6256 -0.1488,1.1908 -0.4462,1.6957 -0.2971,0.505 -0.7046,0.8998 -1.2219,1.1848 -0.5171,0.285 -1.098,0.4275 -1.7423,0.4275 z m 0,-0.6133 c 0.5142,0 0.9789,-0.1162 1.394,-0.3485 0.4149,-0.2323 0.7403,-0.5543 0.9757,-0.9663 0.2354,-0.4121 0.3531,-0.872 0.3531,-1.3799 0,-0.508 -0.1177,-0.9681 -0.3531,-1.3799 -0.2354,-0.412 -0.5608,-0.7342 -0.9757,-0.9665 -0.4151,-0.2324 -0.8798,-0.3485 -1.394,-0.3485 -0.5141,0 -0.9803,0.1161 -1.3984,0.3485 -0.4181,0.2323 -0.7466,0.5545 -0.985,0.9665 -0.2385,0.4118 -0.3579,0.8719 -0.3579,1.3799 0,0.5079 0.1194,0.9678 0.3579,1.3799 0.2384,0.412 0.5669,0.734 0.985,0.9663 0.4181,0.2323 0.8843,0.3485 1.3984,0.3485 z m 10.4688,-2.6947 h 0.6598 v 2.4811 c -0.3036,0.2662 -0.6628,0.4707 -1.0779,0.6132 -0.4151,0.1425 -0.8519,0.2137 -1.3103,0.2137 -0.6504,0 -1.2358,-0.1425 -1.7562,-0.4275 -0.5203,-0.285 -0.9293,-0.6798 -1.2267,-1.1848 -0.2972,-0.5049 -0.446,-1.0701 -0.446,-1.6957 0,-0.6257 0.1488,-1.1911 0.446,-1.696 0.2974,-0.5049 0.7064,-0.8997 1.2267,-1.1847 0.5204,-0.285 1.1088,-0.4275 1.7656,-0.4275 0.4956,0 0.9509,0.079 1.366,0.2369 0.415,0.1582 0.7651,0.392 1.05,0.7016 l -0.4274,0.4368 c -0.5143,-0.508 -1.1678,-0.762 -1.9608,-0.762 -0.5266,0 -1.002,0.1161 -1.4264,0.3485 -0.4244,0.2323 -0.7573,0.5545 -0.9989,0.9665 -0.2415,0.4118 -0.3625,0.8719 -0.3625,1.3799 0,0.5079 0.121,0.9663 0.3625,1.3753 0.2416,0.4088 0.573,0.7309 0.9943,0.9663 0.4212,0.2354 0.8952,0.3531 1.4217,0.3531 0.6692,0 1.2359,-0.1673 1.7005,-0.5019 z m 7.616,1.5145 h -3.6238 l -0.7808,1.7378 h -0.7155 l 2.9736,-6.5046 h 0.6783 l 2.9736,6.5046 h -0.7248 z m -0.2508,-0.5575 -1.5611,-3.4938 -1.5611,3.4938 z m 6.2037,-4.5998 h 0.6132 v 8.6978 h -0.6132 z m 8.9354,6.9508 c -0.6444,0 -1.225,-0.1425 -1.7423,-0.4275 -0.5173,-0.285 -0.9231,-0.6798 -1.2174,-1.1848 -0.2941,-0.5049 -0.4414,-1.0701 -0.4414,-1.6957 0,-0.6257 0.1473,-1.1911 0.4414,-1.696 0.2943,-0.5049 0.7016,-0.8997 1.2219,-1.1847 0.5204,-0.285 1.1028,-0.4275 1.7471,-0.4275 0.4832,0 0.9292,0.0805 1.3381,0.2417 0.4088,0.161 0.7558,0.3964 1.0408,0.7061 l -0.4368,0.4369 c -0.508,-0.5143 -1.1491,-0.7714 -1.9236,-0.7714 -0.5142,0 -0.982,0.1176 -1.4031,0.3532 -0.4212,0.2354 -0.7512,0.5574 -0.9896,0.9664 -0.2385,0.4087 -0.3579,0.8673 -0.3579,1.3753 0,0.5079 0.1194,0.9663 0.3579,1.3753 0.2384,0.4088 0.5684,0.7309 0.9896,0.9663 0.4211,0.2354 0.8889,0.3531 1.4031,0.3531 0.7806,0 1.4217,-0.2602 1.9236,-0.7805 l 0.4368,0.4368 c -0.285,0.3095 -0.6335,0.5467 -1.0455,0.7107 -0.4121,0.1642 -0.8596,0.2463 -1.3427,0.2463 z m 9.2328,-0.0557 -1.4867,-2.0908 c -0.1673,0.0187 -0.3407,0.0278 -0.5204,0.0278 h -1.7471 v 2.063 h -0.6874 v -6.5046 h 2.4345 c 0.8301,0 1.4806,0.1982 1.9514,0.5946 0.4707,0.3965 0.7061,0.9417 0.7061,1.6354 0,0.508 -0.1286,0.937 -0.3855,1.287 -0.2571,0.3501 -0.6241,0.6024 -1.1012,0.7573 l 1.589,2.2303 z m -2.0258,-2.6484 c 0.6444,0 1.1369,-0.1425 1.4775,-0.4275 0.3407,-0.285 0.5111,-0.6844 0.5111,-1.1987 0,-0.5264 -0.1704,-0.9308 -0.5111,-1.2125 -0.3406,-0.282 -0.8331,-0.4229 -1.4775,-0.4229 h -1.7284 v 3.2616 z m 7.6719,-3.8562 c 0.8301,0 1.4806,0.1982 1.9514,0.5946 0.4707,0.3965 0.7061,0.9417 0.7061,1.6354 0,0.6938 -0.2354,1.2374 -0.7061,1.631 -0.4708,0.3933 -1.1213,0.59 -1.9514,0.59 h -1.7471 v 2.0536 h -0.6874 v -6.5046 z m -0.0187,3.847 c 0.6443,0 1.1369,-0.1409 1.4775,-0.4229 0.3407,-0.2819 0.511,-0.6798 0.511,-1.1941 0,-0.5264 -0.1703,-0.9308 -0.511,-1.2125 -0.3406,-0.282 -0.8332,-0.4229 -1.4775,-0.4229 h -1.7284 v 3.2524 z m 9.6417,2.7133 c -0.5018,0 -0.9493,-0.1332 -1.3429,-0.3995 -0.3933,-0.2664 -0.7,-0.6489 -0.9197,-1.1477 -0.22,-0.4986 -0.3301,-1.0856 -0.3301,-1.7608 0,-0.6753 0.1101,-1.2622 0.3301,-1.761 0.2197,-0.4986 0.5264,-0.8813 0.9197,-1.1476 0.3936,-0.2665 0.8411,-0.3996 1.3429,-0.3996 0.5017,0 0.9494,0.1331 1.3427,0.3996 0.3933,0.2663 0.7016,0.649 0.9246,1.1476 0.223,0.4988 0.3346,1.0857 0.3346,1.761 0,0.6752 -0.1116,1.2622 -0.3346,1.7608 -0.223,0.4988 -0.5313,0.8813 -0.9246,1.1477 -0.3933,0.2663 -0.841,0.3995 -1.3427,0.3995 z m 0,-0.6133 c 0.3779,0 0.7108,-0.1053 0.999,-0.3159 0.288,-0.2106 0.5125,-0.5173 0.6735,-0.92 0.1612,-0.4026 0.2417,-0.8889 0.2417,-1.4588 0,-0.57 -0.0805,-1.0564 -0.2417,-1.4591 -0.161,-0.4024 -0.3855,-0.7092 -0.6735,-0.9198 -0.2882,-0.2105 -0.6211,-0.316 -0.999,-0.316 -0.3778,0 -0.7109,0.1055 -0.9989,0.316 -0.2881,0.2106 -0.5128,0.5174 -0.6738,0.9198 -0.1609,0.4027 -0.2416,0.8891 -0.2416,1.4591 0,0.5699 0.0807,1.0562 0.2416,1.4588 0.161,0.4027 0.3857,0.7094 0.6738,0.92 0.288,0.2106 0.6211,0.3159 0.9989,0.3159 z m 10.0227,-1.1523 h -1.3009 v 1.7099 h -0.6692 v -1.7099 h -3.6704 v -0.4832 l 3.4475,-4.3115 h 0.7433 l -3.3267,4.2001 h 2.8248 v -1.5054 h 0.6507 v 1.5054 h 1.3009 z m 4.1592,-6.1143 h 0.6042 l -3.0665,8.7533 h -0.6042 z m 3.4068,3.9865 c 0.9415,0 1.6276,0.1688 2.0581,0.5064 0.4306,0.3376 0.6459,0.8099 0.6459,1.4171 0,0.3779 -0.0883,0.7155 -0.2649,1.0129 -0.1765,0.2974 -0.4414,0.5312 -0.7945,0.7016 -0.3531,0.1703 -0.7866,0.2554 -1.3009,0.2554 -0.4647,0 -0.9061,-0.076 -1.3242,-0.2276 -0.4181,-0.1518 -0.7542,-0.3548 -1.0081,-0.6087 l 0.3252,-0.5297 c 0.2167,0.223 0.5017,0.4042 0.855,0.5436 0.353,0.1395 0.734,0.2091 1.1427,0.2091 0.5391,0 0.9557,-0.1207 1.25,-0.3624 0.2942,-0.2415 0.4414,-0.5637 0.4414,-0.9664 0,-0.4459 -0.1657,-0.7836 -0.4973,-1.0128 -0.3313,-0.2293 -0.8904,-0.344 -1.6772,-0.344 h -1.3845 l 0.3346,-3.2614 h 3.5588 v 0.5946 h -2.9734 l -0.2232,2.0723 z m 7.0771,3.8934 c -0.5019,0 -0.9494,-0.1332 -1.3429,-0.3995 -0.3933,-0.2664 -0.7001,-0.6489 -0.9198,-1.1477 -0.2199,-0.4986 -0.33,-1.0856 -0.33,-1.7608 0,-0.6753 0.1101,-1.2622 0.33,-1.761 0.2197,-0.4986 0.5265,-0.8813 0.9198,-1.1476 0.3935,-0.2665 0.841,-0.3996 1.3429,-0.3996 0.5017,0 0.9494,0.1331 1.3427,0.3996 0.3933,0.2663 0.7016,0.649 0.9245,1.1476 0.223,0.4988 0.3346,1.0857 0.3346,1.761 0,0.6752 -0.1116,1.2622 -0.3346,1.7608 -0.2229,0.4988 -0.5312,0.8813 -0.9245,1.1477 -0.3933,0.2663 -0.841,0.3995 -1.3427,0.3995 z m 0,-0.6133 c 0.3779,0 0.7107,-0.1053 0.999,-0.3159 0.288,-0.2106 0.5125,-0.5173 0.6735,-0.92 0.1612,-0.4026 0.2417,-0.8889 0.2417,-1.4588 0,-0.57 -0.0805,-1.0564 -0.2417,-1.4591 -0.161,-0.4024 -0.3855,-0.7092 -0.6735,-0.9198 -0.2883,-0.2105 -0.6211,-0.316 -0.999,-0.316 -0.3779,0 -0.7109,0.1055 -0.999,0.316 -0.288,0.2106 -0.5127,0.5174 -0.6737,0.9198 -0.161,0.4027 -0.2417,0.8891 -0.2417,1.4591 0,0.5699 0.0807,1.0562 0.2417,1.4588 0.161,0.4027 0.3857,0.7094 0.6737,0.92 0.2881,0.2106 0.6211,0.3159 0.999,0.3159 z m 8.2199,-2.8527 c 0.4088,0.1362 0.7233,0.3407 0.943,0.6133 0.22,0.2726 0.3301,0.6009 0.3301,0.985 0,0.3779 -0.1023,0.7077 -0.3068,0.9896 -0.2043,0.2818 -0.4971,0.4987 -0.878,0.6505 -0.3811,0.1516 -0.8286,0.2276 -1.3429,0.2276 -0.7805,0 -1.3938,-0.1673 -1.8398,-0.5017 -0.4461,-0.3346 -0.6691,-0.7899 -0.6691,-1.366 0,-0.3902 0.107,-0.7202 0.3206,-0.9898 0.2137,-0.2693 0.525,-0.4723 0.934,-0.6085 -0.3346,-0.13 -0.5885,-0.3176 -0.7621,-0.5623 -0.1734,-0.2445 -0.2602,-0.5343 -0.2602,-0.8689 0,-0.5264 0.206,-0.9445 0.6181,-1.2543 0.4118,-0.3098 0.9648,-0.4647 1.6585,-0.4647 0.4586,0 0.8597,0.0698 1.2035,0.2091 0.3437,0.1394 0.6117,0.3391 0.8038,0.5993 0.1921,0.2602 0.288,0.5639 0.288,0.9106 0,0.3346 -0.0898,0.6244 -0.2695,0.8689 -0.1797,0.2447 -0.4366,0.4323 -0.7712,0.5623 z m -2.862,-1.4125 c 0,0.3594 0.1425,0.6442 0.4275,0.855 0.2847,0.2106 0.6783,0.3159 1.1799,0.3159 0.5019,0 0.8967,-0.1053 1.185,-0.3159 0.288,-0.2108 0.432,-0.4925 0.432,-0.8456 0,-0.3655 -0.1473,-0.6537 -0.4414,-0.8643 -0.2943,-0.2106 -0.6861,-0.3159 -1.1756,-0.3159 -0.4955,0 -0.8873,0.1053 -1.1754,0.3159 -0.288,0.2106 -0.432,0.4956 -0.432,0.8549 z m 1.6074,4.3118 c 0.5763,0 1.0268,-0.1177 1.3521,-0.3531 0.3252,-0.2356 0.4879,-0.5545 0.4879,-0.9572 0,-0.4027 -0.1627,-0.7203 -0.4879,-0.9524 -0.3253,-0.2324 -0.7758,-0.3485 -1.3521,-0.3485 -0.5697,0 -1.0174,0.1161 -1.3427,0.3485 -0.3252,0.2321 -0.4877,0.5497 -0.4877,0.9524 0,0.4088 0.161,0.7294 0.4832,0.9617 0.3219,0.2324 0.7712,0.3486 1.3472,0.3486 z m 6.1944,-5.9936 v 6.5046 h -0.6692 v -5.91 h -1.5333 v -0.5946 z m 6.9283,5.9098 v 0.5948 h -4.5626 v -0.4738 l 2.7041,-2.6484 c 0.3407,-0.3346 0.5715,-0.6242 0.6922,-0.8689 0.121,-0.2447 0.1813,-0.491 0.1813,-0.7388 0,-0.3839 -0.1317,-0.6828 -0.3949,-0.8967 -0.2632,-0.2136 -0.6396,-0.3206 -1.129,-0.3206 -0.7621,0 -1.3536,0.2416 -1.775,0.7248 l -0.4738,-0.4088 c 0.2539,-0.2973 0.5776,-0.5266 0.9711,-0.6876 0.3933,-0.1612 0.8378,-0.2417 1.3334,-0.2417 0.6628,0 1.188,0.1564 1.575,0.4692 0.3872,0.3129 0.5808,0.7419 0.5808,1.287 0,0.3346 -0.0744,0.6568 -0.223,0.9666 -0.1488,0.3098 -0.4305,0.6659 -0.8456,1.0685 l -2.2115,2.1744 z"
     style="fill:#c38465;fill-rule:evenodd;stroke:#c38465;stroke-width:0.216;stroke-linecap:butt;stroke-linejoin:miter;stroke-dasharray:none"
     id="path6" />
  <path
     d="m 142.5521,100.6226 c -0.1059,-3.4819 -2.9597,-6.2728 -6.4672,-6.2728 -3.5746,0 -6.4721,2.8978 -6.4721,6.4725 0,0.1701 0.008,0.3386 0.0215,0.5055 -0.5844,-0.1669 -1.2004,-0.2583 -1.8384,-0.2583 -3.6892,0 -6.68,2.9905 -6.68,6.6796 0,1.938 0.8265,3.6827 2.1447,4.9027 -0.4752,0.6417 -0.7565,1.4354 -0.7565,2.2951 0,0.5887 0.1322,1.1463 0.368,1.6456 -2.0025,1.2736 -3.3324,3.5106 -3.3324,6.0595 0,3.9643 3.2138,7.1781 7.1781,7.1781 0.0327,0 0.0649,-0.002 0.0975,-0.002 -0.0637,0.4045 -0.0975,0.819 -0.0975,1.2414 0,4.3742 3.5458,7.9198 7.9196,7.9198 4.3741,0 7.9197,-3.5456 7.9197,-7.9198 v -30.4466 z"
     style="fill:#e4dcd1;fill-rule:evenodd"
     id="path8" />
  <path
     d="m 134.6374,137.6102 c -4.6925,0 -8.5099,-3.8177 -8.5099,-8.5103 0,-0.2224 0.009,-0.446 0.0262,-0.6691 -4.0212,-0.2897 -7.2043,-3.6541 -7.2043,-7.7481 0,-2.5051 1.1865,-4.8177 3.1977,-6.2801 -0.1551,-0.4569 -0.2335,-0.9344 -0.2335,-1.425 0,-0.7871 0.2025,-1.5436 0.5897,-2.2153 -1.2625,-1.3427 -1.9779,-3.1316 -1.9779,-4.9824 0,-4.0088 3.2616,-7.2701 7.2705,-7.2701 0.4121,0 0.8237,0.0352 1.2303,0.1051 0.126,-3.7847 3.244,-6.8249 7.0588,-6.8249 3.814,0 6.8973,2.9651 7.0544,6.7651 0.005,0.032 0.008,0.0648 0.008,0.0982 v 30.4466 c 0,4.6926 -3.8176,8.5103 -8.51,8.5103 z m -7.8221,-10.3425 v 0 c 0.1711,0 0.3339,0.0743 0.4461,0.2037 0.1141,0.1315 0.1644,0.3067 0.1373,0.4787 -0.0601,0.3803 -0.0905,0.7671 -0.0905,1.1498 0,4.0415 3.2879,7.3294 7.3292,7.3294 4.0413,0 7.3292,-3.2879 7.3292,-7.3294 V 98.7295 c -0.002,-0.0191 -0.004,-0.0387 -0.005,-0.0582 -0.0971,-3.1966 -2.6787,-5.7005 -5.8769,-5.7005 -3.2433,0 -5.8819,2.6387 -5.8819,5.8821 0,0.1389 0.006,0.2892 0.0197,0.4597 0.0152,0.1929 -0.0652,0.3808 -0.2149,0.5031 -0.1499,0.1225 -0.3498,0.1636 -0.5359,0.1106 -0.5472,-0.1564 -1.1112,-0.2358 -1.6761,-0.2358 -3.3577,0 -6.0896,2.7318 -6.0896,6.0894 0,1.6903 0.7127,3.3192 1.9553,4.4692 0.221,0.2046 0.2527,0.5426 0.0735,0.7848 -0.4191,0.5659 -0.6406,1.2381 -0.6406,1.9437 0,0.4869 0.1049,0.9558 0.3115,1.3934 0.1269,0.2691 0.034,0.5905 -0.2171,0.7503 -1.9152,1.2182 -3.0587,3.2972 -3.0587,5.5614 0,3.6324 2.9552,6.5876 6.5876,6.5876 l 0.0894,-0.003 c 0.003,-1e-4 0.005,-1e-4 0.008,-1e-4 z"
     style="fill:#7b6347;fill-rule:evenodd"
     id="path10" />
  <g
     id="Layer1000">
    <path
       d="m 126.3836,117.4292 c -2.4547,0 -4.4516,-1.997 -4.4516,-4.4516 0,-2.4546 1.9969,-4.4515 4.4516,-4.4515 0.3261,0 0.5904,0.2644 0.5904,0.5905 0,0.3261 -0.2643,0.5904 -0.5904,0.5904 -1.8035,0 -3.2707,1.4672 -3.2707,3.2706 0,1.8034 1.4672,3.2707 3.2707,3.2707 0.3261,0 0.5904,0.2643 0.5904,0.5904 0,0.3262 -0.2643,0.5905 -0.5904,0.5905 z"
       style="fill:#7b6347;fill-rule:evenodd"
       id="path12" />
  </g>
  <g
     id="Layer1001">
    <path
       d="m 129.5263,103.0475 c -0.1877,0 -0.3722,-0.0891 -0.4867,-0.2554 -0.358,-0.5192 -0.5472,-1.1277 -0.5472,-1.7598 0,-1.7112 1.3923,-3.1034 3.1037,-3.1034 0.6712,0 1.3102,0.2109 1.8479,0.6098 0.2618,0.1943 0.3167,0.564 0.1225,0.8259 -0.1941,0.2618 -0.5637,0.3168 -0.8259,0.1225 -0.3328,-0.247 -0.7286,-0.3774 -1.1445,-0.3774 -1.0603,0 -1.9229,0.8625 -1.9229,1.9226 0,0.3917 0.1171,0.7684 0.3385,1.0897 0.1851,0.2684 0.1175,0.6362 -0.1509,0.8211 -0.1023,0.0706 -0.2191,0.1044 -0.3345,0.1044 z"
       style="fill:#7b6347;fill-rule:evenodd"
       id="path15" />
  </g>
  <g
     id="Layer1002">
    <path
       d="m 131.5109,112.3361 c -1.4739,0 -2.8599,-0.7213 -3.7071,-1.9296 -0.1873,-0.267 -0.1225,-0.6352 0.1443,-0.8224 0.2672,-0.187 0.6353,-0.1225 0.8224,0.1443 0.6265,0.8936 1.6511,1.4268 2.7404,1.4268 1.8441,0 3.3443,-1.5 3.3443,-3.344 0,-0.8933 -0.348,-1.7332 -0.9795,-2.3648 -0.2306,-0.2307 -0.2306,-0.6044 0,-0.835 0.2304,-0.2306 0.6045,-0.2306 0.835,0 0.8546,0.8546 1.3253,1.9911 1.3253,3.1998 0,2.4949 -2.0299,4.5249 -4.5251,4.5249 z"
       style="fill:#7b6347;fill-rule:evenodd"
       id="path18" />
  </g>
  <g
     id="Layer1003">
    <path
       d="m 135.8858,133.8585 c -1.1123,0 -2.2014,-0.4106 -3.0433,-1.1731 -0.2417,-0.2188 -0.2602,-0.5923 -0.0413,-0.8339 0.2188,-0.2419 0.592,-0.2606 0.834,-0.0413 0.809,0.7327 1.9262,1.0258 2.9883,0.7848 1.7983,-0.4083 2.9291,-2.2034 2.5209,-4.0017 -0.1977,-0.8711 -0.723,-1.6131 -1.4788,-2.0892 -0.2758,-0.174 -0.3586,-0.5385 -0.1848,-0.8144 0.174,-0.2757 0.5386,-0.3583 0.8144,-0.1848 1.0226,0.6445 1.7331,1.6483 2.0008,2.8268 0.5523,2.4333 -0.9778,4.8624 -3.411,5.4148 -0.3313,0.0752 -0.6664,0.112 -0.9992,0.112 z"
       style="fill:#7b6347;fill-rule:evenodd"
       id="path21" />
  </g>
  <g
     id="Layer1004">
    <path
       d="m 139.0804,104.03 c -0.3276,0 -0.6577,-0.0359 -0.9853,-0.1083 -2.4363,-0.5386 -3.9802,-2.9588 -3.4417,-5.3952 0.3179,-1.4389 1.3213,-2.6364 2.6839,-3.2032 0.3004,-0.1256 0.6468,0.0171 0.7718,0.3185 0.1253,0.301 -0.0172,0.6465 -0.3183,0.7718 -1.0076,0.4191 -1.7493,1.3042 -1.9845,2.3679 -0.3979,1.8004 0.7432,3.5893 2.5437,3.9873 0.8723,0.1927 1.7671,0.0341 2.5204,-0.4462 0.2749,-0.1752 0.6397,-0.0944 0.8153,0.1804 0.1752,0.2749 0.0945,0.6399 -0.1804,0.8153 -0.736,0.4694 -1.5724,0.7117 -2.4249,0.7117 z"
       style="fill:#7b6347;fill-rule:evenodd"
       id="path24" />
  </g>
  <g
     id="Layer1005">
    <path
       d="m 137.4414,114.0746 c -1.9253,0 -3.5438,-1.3778 -3.8484,-3.2761 -0.0517,-0.322 0.1673,-0.6249 0.4894,-0.6765 0.3218,-0.0517 0.6248,0.1674 0.6764,0.4895 0.2123,1.3223 1.3404,2.2823 2.6826,2.2823 1.4981,0 2.7171,-1.2188 2.7171,-2.7169 0,-0.3261 0.2643,-0.5904 0.5903,-0.5904 0.3262,0 0.5905,0.2643 0.5905,0.5904 0,2.1492 -1.7487,3.8977 -3.8979,3.8977 z"
       style="fill:#7b6347;fill-rule:evenodd"
       id="path27" />
  </g>
  <g
     id="Layer1006">
    <path
       d="m 130.2869,130.2273 c -2.6163,0 -4.7448,-2.1285 -4.7448,-4.7448 0,-1.4641 0.6606,-2.8236 1.8123,-3.7299 0.2559,-0.2018 0.6271,-0.1576 0.829,0.0988 0.2016,0.2562 0.1575,0.6274 -0.0988,0.829 -0.8653,0.681 -1.3616,1.7024 -1.3616,2.8021 0,1.9652 1.5987,3.5639 3.5639,3.5639 0.7784,0 1.5178,-0.2463 2.1382,-0.7123 0.2612,-0.1958 0.6312,-0.143 0.8267,0.1175 0.1958,0.2607 0.1432,0.6308 -0.1175,0.8267 -0.8265,0.6207 -1.8112,0.949 -2.8474,0.949 z"
       style="fill:#7b6347;fill-rule:evenodd"
       id="path30" />
  </g>
  <g
     id="Layer1007">
    <path
       d="m 135.1257,123.0114 c -0.1554,0 -0.3118,-0.009 -0.4688,-0.0281 -1.1899,-0.1422 -2.2306,-0.8112 -2.8554,-1.8352 -0.1698,-0.2784 -0.0819,-0.6418 0.1964,-0.8117 0.2783,-0.1695 0.6417,-0.082 0.8115,0.1966 0.4351,0.7131 1.1597,1.1788 1.9878,1.2778 0.7161,0.0852 1.4243,-0.1129 1.992,-0.5591 0.5674,-0.4465 0.9273,-1.087 1.0129,-1.8041 0.0703,-0.5864 -0.0487,-1.1653 -0.3438,-1.6742 -0.1635,-0.2822 -0.0674,-0.6434 0.2148,-0.807 0.2824,-0.1633 0.6434,-0.0671 0.807,0.2147 0.4243,0.7321 0.5953,1.5644 0.4945,2.4067 -0.1231,1.0301 -0.6401,1.9506 -1.4555,2.592 -0.6915,0.5436 -1.5272,0.8316 -2.3934,0.8316 z"
       style="fill:#7b6347;fill-rule:evenodd"
       id="path33" />
  </g>
  <path
     d="m 166.3282,87.9747 -0.6777,0.5329 c -0.0989,0.0971 -0.1407,0.2768 -0.2269,0.378 -0.1005,0.1181 -0.1879,0.1636 -0.3415,0.2667 -0.6108,0.4101 -0.1429,0.8231 -0.7782,1.6519 -0.7677,1.0015 -1.8668,1.6652 -3.234,1.6567 -0.1089,0.1247 -0.3061,0.5416 -0.42,0.7143 -0.5339,0.8095 -1.0152,1.2147 -1.6144,1.8503 l 0.4569,-0.9745 c -0.4794,0.266 -1.0091,0.7533 -1.6301,0.8793 0.2219,-0.13 1.0735,-1.0876 1.2,-1.382 -0.4868,0.1272 -0.9991,0.2202 -1.5413,0.2222 0.1517,-0.1607 0.7438,-0.5443 0.9732,-0.694 0.2938,-0.192 1.8381,-1.1831 1.9913,-1.4659 0.2481,-0.458 0.4926,-0.67 0.7078,-0.9932 l -0.9995,-0.0173 c 0.2273,-0.0933 0.4065,-0.1917 0.5338,-0.3828 -0.3175,0.0084 -0.6023,-0.0166 -0.8861,-0.1116 -0.1146,-0.0384 -0.2579,-0.1069 -0.3536,-0.1599 -0.1541,-0.0854 -0.1711,-0.1389 -0.2629,-0.2034 0.4436,-0.0056 0.5542,-0.0367 0.9178,-0.1704 -0.1182,-0.0539 -0.3455,-0.0741 -0.4905,-0.1156 -0.176,-0.0504 -0.3141,-0.1043 -0.4751,-0.1812 -0.2737,-0.1307 -0.6404,-0.2923 -0.8129,-0.4931 l 1.3357,2e-4 c -0.6292,-0.1488 -1.3279,-0.7266 -1.5216,-1.1006 0.6899,0.1941 1.8923,0.1749 2.6597,0.1213 0.9624,-0.0671 1.0147,0.0277 1.8696,0.8852 0.2474,0.2481 0.584,0.4631 0.8763,0.0384 0.2446,-0.3555 0.0482,-0.6582 0.471,-0.9274 0.3364,-0.2142 0.8093,-0.2204 1.1482,-0.0181 0.3291,0.1965 0.1424,0.1152 0.5462,0.0804 0.2229,-0.0192 0.412,0.0045 0.5788,0.1132 z"
     style="fill:#7b6347;fill-rule:evenodd"
     id="path36" />
  <path
     d="m 170.4813,94.0688 -0.4834,0.3801 c -0.0706,0.0693 -0.1004,0.1975 -0.1619,0.2697 -0.0717,0.0842 -0.1341,0.1167 -0.2437,0.1902 -0.4357,0.2926 -0.1019,0.5872 -0.5552,1.1786 -0.5476,0.7144 -1.3317,1.1879 -2.3071,1.1818 -0.0777,0.089 -0.2183,0.3864 -0.2996,0.5096 -0.3809,0.5775 -0.7243,0.8666 -1.1517,1.32 l 0.3259,-0.6952 c -0.342,0.1898 -0.7199,0.5374 -1.1629,0.6273 0.1583,-0.0927 0.7658,-0.7759 0.8561,-0.9859 -0.3473,0.0907 -0.7128,0.1571 -1.0996,0.1585 0.1082,-0.1147 0.5307,-0.3883 0.6943,-0.4951 0.2096,-0.137 1.3113,-0.844 1.4206,-1.0458 0.177,-0.3267 0.3514,-0.4779 0.5049,-0.7085 l -0.713,-0.0124 c 0.1622,-0.0666 0.29,-0.1368 0.3808,-0.2731 -0.2265,0.006 -0.4297,-0.0118 -0.6322,-0.0796 -0.0817,-0.0274 -0.1839,-0.0762 -0.2522,-0.1141 -0.1099,-0.0609 -0.1221,-0.0991 -0.1876,-0.145 0.3165,-0.0041 0.3954,-0.0263 0.6548,-0.1216 -0.0843,-0.0385 -0.2465,-0.0529 -0.3499,-0.0825 -0.1255,-0.036 -0.2241,-0.0744 -0.3389,-0.1293 -0.1953,-0.0932 -0.4569,-0.2085 -0.58,-0.3518 l 0.9529,2e-4 c -0.4489,-0.1062 -0.9473,-0.5183 -1.0855,-0.7852 0.4921,0.1385 1.35,0.1248 1.8974,0.0866 0.6866,-0.048 0.7239,0.0197 1.3338,0.6314 0.1765,0.177 0.4167,0.3305 0.6252,0.0275 0.1745,-0.2536 0.0344,-0.4696 0.336,-0.6617 0.24,-0.1528 0.5774,-0.1572 0.8192,-0.0128 0.2347,0.1401 0.1015,0.0821 0.3896,0.0573 0.159,-0.0138 0.2939,0.0032 0.4129,0.0808 z"
     style="fill:#7b6347;fill-rule:evenodd"
     id="path38" />
  <path
     d="m 144.3231,94.7188 c 0.3046,0.2375 0.3136,0.561 0.5529,0.8696 h 0.0263 c 0.0176,-0.5974 0.0353,-1.1945 0.0529,-1.7919 -0.1955,-1.2454 -0.7171,-2.1228 -2.1601,-2.1072 -0.1461,0.2245 -0.1852,0.5401 -0.1849,0.922 0.002,1.3747 0.9503,1.5136 1.7129,2.1075 z m 11.905,26.2644 c 0.2564,-0.1255 0.5324,-0.2207 0.6848,-0.4475 -0.4177,-0.5537 -1.1696,-1.4392 -2.2394,-1.2911 -0.438,0.0605 -0.8905,0.2543 -1.4225,0.1582 -0.2195,-0.0703 -0.4391,-0.1406 -0.6584,-0.2106 0.0926,0.3 0.4527,0.5317 0.6584,0.7377 0.7218,0.7218 1.5593,1.7479 2.9771,1.0533 z m 7.3496,-5.4268 c -0.5491,0.241 -0.9802,0.3312 -1.3172,0.764 -0.2219,0.2852 -0.3712,0.6515 -0.6847,0.843 -0.3215,0.1961 -1.0097,0.193 -1.2909,0.3952 0.1918,0.1522 0.6541,0.1267 0.922,0.1846 1.4612,0.3141 2.7764,0.2001 3.5036,-0.7641 0.1505,-0.1996 0.5384,-0.6014 0.4479,-0.922 -0.1965,-0.4018 -0.9726,-0.5103 -1.5807,-0.5007 z m -7.5341,7.2448 c -0.3301,-0.0573 -0.6327,0.0558 -0.9483,-0.0264 -0.313,-0.0812 -0.5268,-0.3118 -0.7907,-0.3951 0.2072,0.9283 1.2214,2.3595 2.0549,2.6869 0.5546,0.2182 1.5144,0.1233 1.8442,-0.2109 -0.1863,-1.2052 -0.9552,-1.8454 -2.1601,-2.0545 z m 9.8261,-11.4332 c -0.1758,-0.0177 -0.3512,-0.0353 -0.5268,-0.053 -0.4689,0.1829 -0.8132,0.1606 -1.1592,0.4215 -0.5042,0.3805 -0.4608,1.148 -0.79,1.7121 -0.1499,0.2566 -0.4285,0.3587 -0.6061,0.58 v 0.0266 c 1.7213,-0.0194 2.9071,-0.3188 3.1611,-1.7921 0.0506,-0.2931 0.0304,-0.6883 -0.079,-0.8951 z m -15.5955,19.6786 c 0.902,0.7204 1.8144,1.4882 2.9502,1.9759 0.6237,0.2019 1.2469,0.4039 1.8709,0.6061 -0.4658,-0.1933 -0.931,-0.3868 -1.3962,-0.5801 -0.8375,-0.3705 -1.6958,-0.9804 -2.3976,-1.5277 -2.214,-1.7259 -3.3475,-4.6423 -4.5312,-7.4025 -0.2636,-0.5708 -0.5268,-1.1415 -0.7901,-1.7123 -0.7409,-1.2772 -1.2541,-2.6551 0.843,-2.9768 1.8139,-0.2783 2.4535,1.9932 3.9254,2.2917 -0.2019,-0.1408 -0.4044,-0.2811 -0.606,-0.4217 -0.5711,-0.7285 -1.1419,-1.4575 -1.7127,-2.1862 h 1.0276 c 0.7447,0.1368 1.3869,0.5198 1.9229,0.8956 0.5063,0.355 0.9298,1.0988 1.6861,1.1589 0.0352,-0.0173 0.0703,-0.035 0.1055,-0.0523 v -0.0793 c -1.1065,-0.7906 -2.0609,-1.8061 -3.5302,-2.2391 -0.3069,-0.0906 -0.8873,-0.1574 -1.2908,-0.079 -0.123,0.0266 -0.2459,0.0526 -0.3689,0.079 -0.5505,-0.1094 -1.2755,-0.4033 -2.0546,-0.2373 -0.4096,0.0874 -0.7116,0.3122 -1.0802,0.3955 l -0.0263,-0.0263 c -0.0269,-2.3659 2.0086,-4.0484 4.6102,-3.3986 2.3314,0.5823 3.7061,2.0241 5.6904,2.8978 0.5181,0.1756 1.036,0.3515 1.5541,0.5271 0.2372,0.0174 0.4744,0.035 0.7114,0.0524 -0.009,0.0179 -0.0177,0.0353 -0.0264,0.0529 -0.1643,0.0315 -0.2354,0.0998 -0.3159,0.2106 v 0.0266 c 0.1305,-0.0191 0.1079,-0.0518 0.1843,0 -0.0266,0.0174 -0.0526,0.035 -0.079,0.0524 -0.2809,0.0616 -0.5624,0.1229 -0.8433,0.1846 v 0.0263 c 0.009,0.0173 0.0177,0.035 0.0261,0.0526 1.4057,0.2948 2.9111,1.2304 4.1626,0 0.2043,-0.2007 0.4664,-0.3694 0.5008,-0.7377 -0.438,-0.3963 -1.4346,-0.9546 -2.3971,-0.6055 -0.2549,0.149 -0.5097,0.298 -0.7643,0.4476 -0.7276,0.1012 -2.0774,-0.5803 -2.3708,-0.9483 v -0.079 c 1.0661,-0.1334 2.2652,-0.4218 3.2138,-0.738 0.2948,-0.0978 0.7941,-0.1354 0.8959,-0.4215 h -0.0532 c -0.2809,0.044 -0.5618,0.0877 -0.8427,0.1319 -0.6555,0.1424 -1.5116,0.3041 -2.2658,0.1843 -0.2224,-0.0353 -0.5129,0.0495 -0.6584,-0.0526 0.2109,-0.2104 0.4215,-0.4215 0.6321,-0.6322 0.4805,-0.659 0.8092,-1.5558 1.4225,-2.0814 0.247,-0.2109 1.4997,-0.6524 1.5544,-0.7638 h -0.2896 c -0.6845,0.1924 -1.1372,0.3139 -1.6071,0.6851 -1.0064,0.7953 -1.8208,3.3318 -3.9514,2.45 -0.5358,-0.3249 -1.0716,-0.65 -1.6073,-0.9746 -0.3504,-0.208 -1.349,-0.5369 -1.5278,-0.843 -0.009,-0.0443 -0.0174,-0.0882 -0.0263,-0.1316 h 0.0526 c 0.3839,-0.1545 0.977,0.2632 1.2385,0.3946 0.97,0.488 2.4943,0.5487 2.9765,-0.4739 -0.1371,-0.3848 -0.3792,-0.515 -0.6057,-0.7906 0.009,-0.0177 0.0173,-0.0348 0.0266,-0.0527 1.4019,0.0205 2.3496,-0.7915 3.0295,-1.5281 -0.009,-0.0176 -0.018,-0.0347 -0.0264,-0.0526 -0.6674,0.4643 -1.4942,0.8644 -2.3979,1.0805 -1.3863,0.3318 -2.9714,0.2557 -4.2148,0.6061 -0.291,0.0816 -1.9061,0.4336 -1.9758,0.3422 0.3998,-0.1232 0.6917,-0.4782 1.0278,-0.685 1.027,-0.5882 2.0549,-1.1769 3.0822,-1.765 0.009,-0.0263 0.0173,-0.053 0.0263,-0.079 -0.009,-0.0176 -0.0177,-0.035 -0.0263,-0.0526 h -0.1053 c -0.5185,0.2719 -1.0366,0.5441 -1.5544,0.8161 -1.7471,1.0206 -3.8569,1.6677 -5.4272,2.8718 -0.532,0.4085 -1.0241,1.0469 -1.3168,1.686 -0.1146,0.3688 -0.2286,0.7377 -0.3426,1.1065 h -0.0263 v -0.0526 c -0.3746,-0.8893 -0.2306,-3.5627 0,-4.4786 0.3422,-0.1229 0.6848,-0.2456 1.0273,-0.3685 h 0.7117 c 0.6578,-0.1053 1.3495,-0.2063 1.6857,-0.6324 l -0.0261,-0.0267 c -0.3662,0.1852 -2.0192,0.4866 -2.2134,-0.0526 0.1502,-0.1073 0.1323,-0.3182 0.2636,-0.4215 1.1768,-0.5968 2.3537,-1.1942 3.53,-1.7913 l 0.0266,0.0263 c -0.0527,0.5095 -0.1053,1.0189 -0.158,1.5281 0.3032,-0.1039 0.4178,-0.5506 0.6585,-0.7374 0.9419,-0.7343 1.5318,-0.6258 1.8176,-2.1078 1.3189,-0.6643 2.8472,-0.5017 3.5297,-1.8703 0.131,-0.2627 0.4328,-1.2304 0.0529,-1.5018 -0.2517,-0.1006 -0.6659,0.022 -0.8693,0.079 -0.6871,0.1938 -1.1479,0.5153 -1.3962,1.1329 -0.3436,0.8551 -0.3208,1.8512 -1.3434,2.0019 0.0167,-0.4947 -0.0631,-0.7319 -0.3159,-0.9483 -1.0528,0.0217 -1.651,0.5939 -1.8969,1.4228 -0.0727,0.2441 -0.0455,0.5097 -0.1583,0.685 -1.4925,0.6145 -2.9858,1.2295 -4.4783,1.844 0.2483,-1.1135 1.555,-2.5059 2.3705,-3.1088 0.4068,-0.2997 1.222,-0.6769 1.4491,-1.1326 -0.7635,0.5095 -1.5278,1.0186 -2.2918,1.5281 -1.0082,0.7837 -2.0193,2.1393 -2.608,3.7631 v 9.3535 c 0.3217,0.7912 0.5529,1.6756 0.7111,2.6369 0.2387,1.4476 -0.2563,2.7222 -0.5795,3.6358 -0.0419,0.1184 -0.0859,0.2341 -0.1316,0.3475 0,1.7974 0,3.5945 0,5.3918 0.6518,-0.5705 1.2064,-1.2705 1.7123,-2.1303 0.3871,-0.657 0.6371,-1.4743 0.8697,-2.2655 0.0787,-0.3781 0.1579,-0.7556 0.2369,-1.1329 h 0.0266 c -0.0824,1.0823 0.2508,2.3832 0.0524,3.556 -0.4502,2.6621 -1.1934,4.6394 -2.8979,6.0064 -0.4738,0.3515 -0.9486,0.7027 -1.4224,1.0539 0.009,0.0176 0.0173,0.0353 0.0263,0.0526 h 0.0266 c 2.2024,-1.4572 3.7409,-2.7272 4.5833,-5.5582 0.2161,-0.7261 0.2404,-1.5217 0.3688,-2.345 0.1438,-0.9182 0.0238,-2.1124 -0.105,-2.8976 -0.0335,-0.2025 0.064,-0.3714 0.0261,-0.5008 -0.053,-0.1802 -0.1742,-0.7944 -0.1317,-0.9746 0.0264,0.0177 0.053,0.0353 0.0787,0.053 0.666,2.7109 1.1202,6.8588 0.0796,9.5099 -0.2899,0.7377 -0.7357,1.4069 -1.1856,2.0022 -0.2109,0.2456 -0.4217,0.4915 -0.6324,0.7374 H 144.9 c 0.3139,-0.1848 0.5401,-0.4868 0.7906,-0.7374 1.382,-1.3828 1.8932,-3.0552 2.2915,-5.4795 0.2422,-1.4713 -0.1979,-2.9548 -0.2893,-4.1624 h 0.0787 c 0.0561,0.6052 0.4267,1.1656 0.6848,1.6071 1.0614,1.8112 1.9186,3.0147 3.5302,4.2679 0.3969,0.3081 1.6368,1.334 2.1075,1.3432 -0.0173,-0.0263 -0.035,-0.0526 -0.0523,-0.079 -0.6078,-0.2158 -0.944,-0.7168 -1.3967,-1.0799 -1.2871,-1.0336 -2.0931,-2.371 -2.9503,-3.8464 -0.1845,-0.3602 -0.3688,-0.7198 -0.5534,-1.08 0.0266,0.009 0.053,0.0174 0.0793,0.0263 0.2667,0.3984 0.6818,0.7305 1.0536,1.0273 z m -7.1129,-19.7168 c 0.2095,-0.1053 0.3926,-0.2361 0.5271,-0.4096 0.2743,-0.3541 0.3998,-0.8098 0.5008,-1.3435 0.008,-0.1756 0.017,-0.3515 0.0257,-0.5271 0.6573,-2.0566 2.0902,-3.6194 3.9515,-4.4786 -0.1799,0.2494 -0.4134,0.4423 -0.5265,0.764 -0.123,0.5708 -0.2459,1.1419 -0.3689,1.7124 -0.1316,0.2282 -0.2635,0.4565 -0.3951,0.685 0.3164,-0.1843 0.6323,-0.3691 0.9483,-0.5537 0.8363,-0.3506 1.6232,-0.5222 1.9229,-1.3958 0.1643,-0.4779 0.2323,-1.6204 -0.3159,-1.686 -0.1933,0.0526 -0.3862,0.1053 -0.5795,0.1579 0.2459,-0.0876 0.4915,-0.1753 0.7377,-0.2632 0.8575,-0.3232 1.5625,-0.9316 2.0283,-1.6597 0.1507,-0.2352 0.4918,-0.839 0.3688,-1.2119 v 0.053 c -0.4863,0.709 -0.7915,1.3113 -1.5544,1.7383 -0.0795,-0.0329 -0.0309,3e-4 -0.0789,-0.0529 -0.2101,-0.5447 0.2502,-1.3429 0.3428,-1.8174 0.2062,-1.0593 -0.6313,-2.301 -1.4491,-2.371 -0.3124,0.2977 -0.4724,0.6191 -0.6058,1.1065 -0.4365,1.5891 0.9359,2.3523 1.6068,3.1348 -0.009,0.044 -0.0177,0.088 -0.0261,0.132 -0.6503,0.3303 -1.3333,0.6679 -2.0814,0.9219 -0.4522,0.1534 -1.0129,0.1933 -1.3965,0.4215 0.2213,-0.5794 2.0193,-2.3013 1.7124,-3.135 v 0.0526 c -0.3715,0.4938 -0.6301,1.0198 -1.027,1.4754 -0.5222,0.5983 -1.172,1.1092 -1.6334,1.7653 -0.3952,0.5968 -0.7906,1.1942 -1.1855,1.7913 -0.1319,0.2372 -0.2636,0.4741 -0.3955,0.7111 0.0703,-0.2986 0.1409,-0.5971 0.2112,-0.8957 0.4753,-0.9385 1.7954,-1.7557 0.8954,-3.2667 -0.1137,-0.1906 -0.2766,-0.565 -0.4742,-0.6584 -0.2606,-0.1236 -0.545,0.2563 -0.6847,0.3688 -0.3938,0.3159 -0.9611,1.1552 -0.6327,1.9756 0.1643,0.4091 0.4987,0.7001 0.606,1.1853 -0.2988,0.3948 -0.915,2.4066 -0.843,3.0031 0.088,0.0359 0.1756,0.0703 0.2636,0.1053 -0.009,0.018 -0.0177,0.0356 -0.0266,0.053 -0.1267,-0.0327 -0.2514,-0.0171 -0.3686,0.0159 z m 0,-6.4704 0.1583,-0.341 c -0.018,0.009 -0.0353,0.0176 -0.053,0.0266 l -0.1053,0.1649 z m 8.4037,15.9659 c 0.158,0.0631 0.2546,0.2112 0.2899,0.3952 -0.1441,-0.0512 -0.2673,-0.2205 -0.2899,-0.3952 z m 0.5005,0.2106 c -0.2841,-0.221 -0.392,-0.6116 -0.6584,-0.843 0.009,0.2899 0.0173,0.58 0.0263,0.8693 0.0616,1.4236 0.1944,2.1194 1.0799,2.6873 0.2095,0.1342 0.7337,0.4811 1.0539,0.3688 0.357,-0.1938 0.3998,-1.1945 0.2372,-1.6597 -0.2754,-0.788 -1.1406,-0.9569 -1.7389,-1.4227 z m 10.6165,-1.3961 c -0.3871,0.1649 -0.729,0.1704 -1.0273,0.3951 -0.6162,0.4641 -0.751,1.2145 -1.7123,1.3696 -0.7782,0.1267 -1.3041,-0.8564 -2.3447,-0.6582 -1.0583,0.2019 -1.3481,1.0172 -2.7396,0.7901 v 0.0792 c 1.121,0.4881 2.3814,1.6832 3.9251,0.8954 0.4044,-0.206 0.6981,-0.3998 0.8693,-0.843 1.5663,0.1386 2.95,0.7684 3.9518,-0.5005 0.2462,-0.3115 0.536,-0.6489 0.5794,-1.1589 -0.0266,-0.044 -0.0526,-0.0879 -0.0789,-0.1319 -0.4213,-0.1322 -0.8208,-0.2366 -1.4228,-0.2369 z m -12.5924,-13.1456 c -0.473,0.2778 -1.3385,0.4505 -1.5804,0.9483 -0.1128,0.3648 0.0596,0.6298 0.2372,0.7904 0.6324,-0.005 1.5353,-1.1028 1.9756,-1.4488 1.4465,-1.1378 2.9473,-2.2628 4.2414,-3.5563 0.3943,-0.3946 1.1106,-0.8242 1.3171,-1.3701 -0.6266,0.4071 -1.1731,0.9958 -1.7384,1.4754 h -0.0266 c 0.1403,-0.2372 0.2809,-0.4747 0.4218,-0.7116 l -0.0269,-0.0261 c -0.5277,0.5523 -1.0059,1.1257 -1.6067,1.6068 -0.14,0.1495 -0.2812,0.2988 -0.4218,0.4481 0.1585,-0.2109 0.3165,-0.4218 0.4744,-0.6327 0.1091,-0.302 0.0926,-0.4759 0.2372,-0.7108 0.2656,-0.4331 0.6148,-0.8057 0.7375,-1.3964 0.1909,-0.9168 -0.4186,-1.9892 -1.1066,-2.0286 -0.3894,0.3562 -0.8048,0.6903 -0.9217,1.3172 -0.2647,1.4259 1.1526,1.6611 0.3423,3.0295 -0.5812,0.9819 -1.5695,1.6866 -2.5554,2.2657 z m 8.5883,1.8969 c 0.1221,-0.2421 0.2549,-0.6543 0.2106,-0.9749 -0.0174,-0.0263 -0.035,-0.0529 -0.0524,-0.079 -0.3324,-0.0951 -0.6523,-0.1585 -1.1065,-0.1585 -0.3868,0.1846 -0.7611,0.2595 -1.001,0.58 -0.2768,0.3695 -0.3607,0.8694 -0.685,1.1856 -0.1794,0.1744 -0.7192,0.2412 -0.8167,0.4741 1.6241,0.1687 2.8889,0.0842 3.451,-1.0273 z m -5.2163,0.1053 c -0.026,0.0261 -0.0526,0.0524 -0.0789,0.079 0.0529,-0.0266 0.1053,-0.0529 0.1582,-0.079 z m 3.7409,-8.5616 c -0.0174,0.0173 -0.035,0.035 -0.0524,0.0529 -0.0266,-0.0529 -0.0529,-0.1059 -0.0789,-0.1582 0.0943,0.0379 0.0726,0.0448 0.1313,0.1053 z m -2.3974,0.1319 c 0.2086,0.3428 0.2202,0.8161 0.2902,1.2376 0.017,-0.009 0.035,-0.0174 0.0523,-0.0257 0.1077,-0.4406 0.8607,-1.9496 1.1329,-2.1871 0.1826,0.1504 0.832,0.944 0.7114,1.3438 -0.1201,0.3977 -0.5667,0.6896 -0.4478,1.3437 0.1027,0.5636 0.464,0.9394 0.5794,1.4488 -0.2653,-0.063 -0.3949,-0.223 -0.7114,-0.2638 -0.3584,0.3712 -0.8516,1.2214 -0.6584,2.0812 0.1056,0.2812 0.2109,0.5621 0.3162,0.843 0.1195,0.4903 -0.0344,1.1169 -0.1053,1.528 0.2659,-0.0949 0.3963,-0.4892 0.6058,-0.6587 0.5968,-0.4828 1.5584,-1.1213 1.2645,-2.3708 -0.1227,-0.3072 -0.2459,-0.6147 -0.3689,-0.9222 0.2685,-0.3984 0.653,-0.6781 0.8957,-1.0797 0.5734,-0.9497 -0.2531,-1.8714 -0.7377,-2.2918 -0.2074,6e-4 -0.2404,0.0478 -0.3686,0.105 0.0868,-0.5091 0.4719,-0.9104 0.6058,-1.4487 0.2968,-1.1963 -0.5112,-2.3494 -1.4754,-2.3714 -0.3521,0.3504 -0.3694,0.8317 -0.6584,1.2648 -0.2017,-0.1756 -0.4039,-0.3515 -0.6058,-0.5271 -0.5702,-0.1617 -1.1144,1.2773 -0.9483,1.9496 0.1059,0.429 0.431,0.67 0.6318,1.0015 z m 5.4798,1.8963 c -1.791,1.1517 -0.9952,1.8469 -1.2911,4.0571 h 0.0263 c 0.053,-0.0443 0.1053,-0.088 0.1583,-0.1319 0.5219,-1.0493 2.6537,-1.2744 1.9756,-3.3194 -0.0932,-0.2818 -0.2387,-0.5213 -0.3949,-0.7374 -0.1053,0.0176 -0.2106,0.035 -0.3162,0.0527 -0.1105,-0.4722 0.2349,-1.014 0.3162,-1.4488 0.2222,-1.1916 -0.703,-2.1434 -1.686,-2.1602 -0.2375,0.2317 -0.2899,0.4898 -0.3689,0.8954 -0.291,1.4945 1.3447,1.6215 1.5807,2.7925 z m -7.1655,-4.9527 c 0.114,0.3165 0.2282,0.6324 0.3422,0.9483 0.018,-0.0087 0.0356,-0.0173 0.053,-0.0263 0.1932,-0.5968 0.3865,-1.1942 0.5794,-1.7913 0.2537,-1.3099 -0.7275,-2.3986 -1.765,-2.424 -0.2534,0.2132 -0.2953,0.4091 -0.3951,0.7906 -0.3747,1.4332 0.6497,1.7743 1.1855,2.5027 z m 9.7469,12.3552 c -0.4293,0.3171 -0.3897,0.7924 -0.6058,1.3438 -0.1762,0.4504 -0.5297,0.5525 -0.8164,0.8693 0.009,0.0176 0.0177,0.035 0.0261,0.0526 h 0.0266 c 0.4059,-0.1825 1.0024,-0.0457 1.5014,-0.1579 0.944,-0.2126 1.9085,-1.0406 1.6597,-2.2392 -0.1794,-0.1307 -0.3237,-0.1909 -0.6587,-0.1845 -0.4126,0.162 -0.8219,0.0865 -1.1329,0.3159 z m -1.686,3.9517 c -0.4449,0.1713 -0.8045,0.1227 -1.1323,0.3692 -0.4545,0.3405 -0.5022,1.099 -0.896,1.5014 -0.2195,0.2242 -0.8664,0.3579 -1.0012,0.6321 h 2.1868 c 0.9622,-0.2103 2.038,-1.1282 1.7123,-2.4237 -0.0263,-0.009 -0.0524,-0.0176 -0.079,-0.0263 -0.2635,-0.0174 -0.5268,-0.0353 -0.7906,-0.0527 z m -9.536,-0.7377 h 0.0523 c 0.2899,0.009 0.5798,0.018 0.8697,0.0267 1.1586,0 2.0551,-0.068 2.5553,-0.7117 0.6078,-0.7814 0.8465,-1.6727 -0.659,-1.6597 -0.2543,0.0619 -0.5089,0.1233 -0.7635,0.1846 -0.6188,0.3581 -0.6405,1.1667 -1.1328,1.633 -0.2187,0.2078 -0.7875,0.2523 -0.922,0.5271 z m 0.2896,-3.5036 h -0.0266 c -0.5633,0.3145 -1.6453,1.7167 -1.3962,2.6873 h 0.0266 c 0.035,-0.009 0.0703,-0.018 0.1056,-0.0267 0.2824,-0.5245 0.7001,-0.8924 1.3169,-1.0799 0.4224,-0.1287 1.0846,-0.1059 1.3172,-0.4218 -0.3651,0.0651 -1.5808,0.5179 -1.818,0.1316 l -0.026,-0.026 c 0.1524,-1.0542 1.2234,-1.2388 1.9229,-1.765 h -0.0789 c -0.4427,0.2601 -0.8841,0.3848 -1.2648,0.6848 -0.2723,0.2899 -0.5442,0.58 -0.8164,0.8693 v -0.0263 c 0.2031,-0.2968 0.6451,-0.6848 0.7377,-1.0273 z m 5.7427,3.5563 c 0.0264,-0.0174 0.053,-0.0347 0.0793,-0.0527 -0.0185,0.0246 0.0136,0.0339 -0.0793,0.0527 z m 2.7402,-2.7659 c -3.1012,-0.5752 -2.0447,2.5452 -3.9254,3.293 v 0.0524 c 0.3949,-0.1404 0.7904,-0.2807 1.1852,-0.4213 2.0167,-0.5971 2.3228,-0.5273 2.7136,-2.7925 0.7094,-0.4883 1.6745,-0.9827 1.9496,-1.8966 0.2277,-0.7568 -0.2407,-1.8373 -0.843,-1.9233 -1.6716,1.0794 -0.6501,1.9143 -1.08,3.6883 z m 2.4761,-1.5544 h 0.0263 c 0.8448,-0.6434 1.9817,-2.5342 0.6585,-3.5303 -0.2205,-0.1655 -0.4398,-0.3596 -0.7901,-0.3949 -1.4687,1.9395 0.591,2.1249 0.1053,3.9252 z m -11.4335,-9.6153 c 0.1669,0.2115 0.2491,0.4449 0.3689,0.7111 0.0179,-0.0087 0.0353,-0.0177 0.0529,-0.026 0.2482,-1.8157 0.2653,-2.95 -1.0009,-3.7149 -0.259,-0.1559 -0.5546,-0.3228 -0.9486,-0.3422 -0.2318,0.2337 -0.2514,0.5037 -0.3162,0.9217 -0.2335,1.5095 1.2407,1.6848 1.8439,2.4503 z m -7.6394,3.5826 h 0.0267 c -0.1184,-0.5106 -0.4554,-0.9069 -0.6854,-1.3756 v 0.4126 c 0.182,0.3674 0.3801,0.727 0.6587,0.963 z m -0.6587,-2.7705 c 0.1661,-0.25 0.381,-0.467 0.4742,-0.6805 0.2213,-0.5059 -0.0877,-1.2095 -0.4742,-1.6753 z m 5.295,-5.0271 c 0.2739,0.1316 0.6179,0.2184 0.7906,0.4475 0.215,0.2859 0.1797,0.7927 0.2372,1.2382 h 0.0524 c 0.0145,-0.681 0.171,-1.2124 0.2635,-1.8179 0.2118,-1.3814 -1.0287,-2.2759 -2.3181,-2.2652 -0.044,0.0263 -0.0879,0.053 -0.1319,0.0787 -0.2939,1.1974 0.3243,1.9417 1.1063,2.3187 z m -1.4751,7.508 c 0.0176,-0.009 0.035,-0.0179 0.0526,-0.0266 0.2366,-1.239 2.0664,-2.3479 0.5008,-3.9248 -0.2161,-0.2179 -0.388,-0.4395 -0.8167,-0.4484 -0.3078,0.2464 -0.4328,0.451 -0.5797,0.8696 -0.5483,1.5628 1.2373,1.988 0.7903,3.4773 0.0174,0.0177 0.0353,0.035 0.0527,0.0529 z m 0.3954,-4.6894 c 0.3046,0.2375 0.3136,0.5609 0.5529,0.8696 h 0.0263 c 0.0176,-0.5974 0.0353,-1.1945 0.0529,-1.7919 -0.1955,-1.2454 -0.7171,-2.1228 -2.1601,-2.1072 -0.1461,0.2245 -0.1852,0.5401 -0.1849,0.922 0.002,1.3747 0.9503,1.5136 1.7129,2.1075 z m -2.3713,3.8988 c 0.0176,-0.009 0.0353,-0.0176 0.0526,-0.026 -0.142,-1.6583 1.3421,-2.0413 0.2899,-3.5569 -0.173,-0.2497 -0.3608,-0.5109 -0.7111,-0.5792 -1.6802,1.3597 -0.466,2.8082 0.3686,4.1621 z"
     style="fill:#c38465;fill-rule:evenodd"
     id="path40" />
</svg>
